{"glyphs":{"0":{"ha":778,"x_min":136,"x_max":853,"o":"m 563 932 q 853 647 853 932 q 733 174 853 363 q 425 -15 613 -15 q 136 267 136 -15 q 189 603 136 451 q 340 843 242 754 q 563 932 438 932 m 694 615 q 694 665 694 615 q 663 758 694 715 q 556 800 632 800 q 416 713 479 800 q 324 512 353 626 q 294 299 294 397 q 326 159 294 200 q 433 118 357 118 q 572 202 508 118 q 665 401 635 286 q 694 615 694 515 z "},"1":{"ha":778,"x_min":292,"x_max":771,"o":"m 292 722 l 636 917 l 771 917 l 560 0 l 406 0 l 575 733 l 333 600 l 292 722 z "},"2":{"ha":778,"x_min":90,"x_max":835,"o":"m 431 392 q 620 570 564 506 q 676 692 676 635 q 642 775 676 750 q 543 800 607 800 q 326 781 435 800 l 290 775 l 310 889 q 575 933 446 933 q 835 725 835 933 q 776 535 835 615 q 592 357 717 454 l 303 133 l 711 133 l 679 0 l 90 0 l 121 126 l 431 392 z "},"3":{"ha":778,"x_min":89,"x_max":829,"o":"m 300 882 q 565 932 428 932 q 765 885 701 932 q 829 740 829 838 q 787 585 829 643 q 653 485 744 526 q 728 419 706 457 q 750 307 750 381 q 643 73 750 161 q 365 -15 536 -15 q 235 -3 304 -15 q 128 21 167 8 l 89 33 l 122 142 q 373 118 278 118 q 531 167 468 118 q 593 300 593 215 q 561 374 593 350 q 456 400 529 399 l 278 401 l 307 518 l 486 525 q 610 578 549 526 q 671 697 671 629 q 532 800 671 800 q 321 783 429 800 l 285 778 l 300 882 z "},"4":{"ha":778,"x_min":101,"x_max":786,"o":"m 469 -6 l 508 163 l 101 163 l 128 276 l 535 917 l 703 917 l 293 292 l 538 292 l 600 561 l 753 561 l 690 292 l 786 292 l 756 163 l 661 163 l 622 -6 l 469 -6 z "},"5":{"ha":778,"x_min":92,"x_max":883,"o":"m 535 578 q 775 364 775 578 q 669 92 775 200 q 403 -15 563 -15 q 257 -2 335 -15 q 136 25 179 11 l 92 39 l 126 158 q 385 118 285 118 q 551 181 486 118 q 617 333 617 244 q 488 444 617 444 q 336 414 414 444 l 311 403 l 197 428 l 347 918 l 883 918 l 853 785 l 440 785 l 350 528 q 535 578 461 578 z "},"6":{"ha":778,"x_min":146,"x_max":885,"o":"m 618 800 q 339 531 426 800 q 553 583 457 583 q 801 350 801 583 q 703 85 801 186 q 428 -15 606 -15 q 220 65 294 -15 q 146 306 146 146 q 179 516 146 408 q 274 718 213 624 q 435 872 335 813 q 654 932 535 932 q 850 910 742 932 l 885 903 l 838 778 q 618 800 728 800 m 643 332 q 519 450 643 450 q 342 417 419 450 l 317 407 q 304 288 304 354 q 337 170 304 222 q 436 118 369 118 q 590 175 538 118 q 643 332 643 232 z "},"7":{"ha":778,"x_min":181,"x_max":879,"o":"m 285 783 l 315 917 l 879 917 l 832 711 l 321 -22 l 181 21 l 683 729 l 694 783 l 285 783 z "},"8":{"ha":778,"x_min":90,"x_max":886,"o":"m 613 933 q 816 882 746 933 q 886 749 886 831 q 703 475 886 567 q 796 299 796 421 q 681 79 796 176 q 374 -18 567 -18 q 90 201 90 -18 q 150 361 90 292 q 292 475 210 431 q 229 545 243 514 q 215 621 215 576 q 320 840 215 746 q 613 933 425 933 m 258 232 q 258 201 258 232 q 294 143 258 171 q 421 115 331 115 q 572 172 511 115 q 633 293 633 228 q 613 361 633 338 q 543 401 593 385 l 414 401 q 303 337 347 381 q 258 232 258 293 m 578 800 q 429 750 485 800 q 374 636 374 700 q 389 576 374 599 q 446 531 404 553 l 575 531 q 676 598 631 554 q 721 692 721 642 q 578 800 721 800 z "},"9":{"ha":778,"x_min":110,"x_max":832,"o":"m 157 149 q 353 126 247 126 q 538 193 460 126 q 647 381 617 260 q 419 338 497 338 q 186 560 186 338 q 297 824 186 715 q 586 932 407 932 q 783 832 724 932 q 831 619 831 753 q 828 549 831 586 q 776 301 819 410 q 663 124 732 192 q 321 -15 521 -15 q 139 8 229 -15 l 110 15 l 157 149 m 693 621 q 551 792 693 792 q 408 740 469 792 q 339 606 346 689 q 338 578 338 590 q 365 503 338 529 q 467 476 393 476 q 644 500 540 476 l 679 507 q 693 621 693 569 z "}," ":{"ha":306,"x_min":0,"x_max":0,"o":""},"!":{"ha":242,"x_min":46,"x_max":425,"o":"m 128 342 l 267 972 l 425 972 l 268 342 l 128 342 m 46 0 l 89 188 l 242 188 l 199 0 l 46 0 z "},"\"":{"ha":429,"x_min":228,"x_max":568,"o":"m 481 625 l 228 625 l 306 960 l 568 960 l 481 625 z "},"#":{"ha":778,"x_min":78,"x_max":911,"o":"m 801 238 l 660 238 l 600 0 l 468 0 l 526 238 l 353 238 l 293 0 l 161 0 l 219 238 l 78 238 l 110 365 l 251 365 l 299 556 l 157 556 l 189 682 l 331 682 l 390 921 l 522 921 l 463 682 l 638 682 l 697 921 l 829 921 l 769 682 l 911 682 l 881 556 l 738 556 l 690 365 l 833 365 l 801 238 m 558 365 l 606 556 l 431 556 l 383 365 l 558 365 z "},"$":{"ha":778,"x_min":126,"x_max":844,"o":"m 740 303 q 649 68 740 151 q 400 -15 557 -15 q 344 -12 381 -15 l 281 -165 l 182 -165 l 251 0 l 126 32 l 151 140 q 303 121 226 128 l 429 419 q 300 506 339 458 q 261 638 261 553 q 347 851 261 769 q 576 933 432 933 q 646 929 611 933 l 708 1078 l 810 1078 l 740 915 l 844 889 l 817 782 q 692 799 757 792 l 572 521 q 705 433 669 478 q 740 303 740 388 m 588 286 q 573 342 588 322 q 514 383 558 363 l 400 115 l 401 115 q 588 286 588 115 m 413 653 q 428 597 413 617 q 488 556 443 576 l 593 807 l 578 807 q 456 766 500 807 q 413 653 413 725 z "},"%":{"ha":778,"x_min":178,"x_max":821,"o":"m 351 671 q 395 695 379 671 q 424 769 411 719 q 436 843 436 818 q 404 881 436 881 q 361 856 378 881 q 332 784 344 832 q 319 711 319 736 q 351 671 319 671 m 178 8 l 728 993 l 821 961 l 271 -24 l 178 8 m 217 776 q 428 974 265 974 q 550 858 550 974 q 539 776 550 822 q 329 576 489 576 q 222 626 251 576 q 206 692 206 654 q 217 776 206 731 m 786 200 q 576 0 736 0 q 454 118 454 0 q 465 200 454 154 q 675 397 514 397 q 797 282 797 397 q 786 200 797 246 m 683 267 q 651 304 683 304 q 608 280 625 304 q 579 206 592 256 q 567 132 567 157 q 599 94 567 94 q 642 119 625 94 q 671 193 658 144 q 683 267 683 242 z "},"&":{"ha":886,"x_min":94,"x_max":914,"o":"m 604 967 q 829 775 829 967 q 772 610 829 674 q 572 490 714 546 l 699 318 q 741 400 718 346 q 774 494 764 454 l 914 494 q 856 349 897 431 q 778 219 814 267 l 897 75 l 793 -15 l 683 125 q 371 -15 550 -15 q 157 47 219 -15 q 94 227 94 108 q 162 426 94 346 q 372 563 229 507 q 333 706 333 633 q 408 901 333 835 q 604 967 482 967 m 399 114 q 513 144 454 114 q 608 218 572 174 l 428 472 q 290 373 329 431 q 251 235 251 315 q 399 114 251 114 m 601 840 q 515 802 544 840 q 485 694 485 764 q 518 575 485 624 q 644 659 611 618 q 678 763 678 700 q 601 840 678 840 z "},"'":{"ha":206,"x_min":178,"x_max":396,"o":"m 308 625 l 178 625 l 256 960 l 396 960 l 308 625 z "},"(":{"ha":321,"x_min":89,"x_max":551,"o":"m 353 652 q 333 602 353 652 q 279 419 313 553 q 246 186 246 286 q 263 -128 246 -1 l 268 -171 l 125 -171 q 89 172 89 -43 q 122 432 89 297 q 203 671 156 567 q 378 993 301 888 l 411 1039 l 551 1039 q 453 867 514 983 q 353 652 393 751 z "},")":{"ha":322,"x_min":-28,"x_max":435,"o":"m 171 223 q 191 273 171 223 q 244 456 211 322 q 278 689 278 589 q 261 1003 278 876 l 256 1046 l 399 1046 q 435 703 435 918 q 401 443 435 578 q 321 204 368 308 q 146 -118 222 -12 l 113 -164 l -28 -164 q 70 8 10 -108 q 171 223 131 124 z "},"*":{"ha":582,"x_min":232,"x_max":699,"o":"m 699 700 l 522 700 l 576 531 l 490 504 l 433 675 l 288 565 l 232 636 l 379 746 l 236 849 l 290 924 l 433 819 l 489 990 l 578 961 l 524 789 l 699 789 l 699 700 z "},"+":{"ha":778,"x_min":153,"x_max":785,"o":"m 153 281 l 153 417 l 399 417 l 399 665 l 535 665 l 535 417 l 785 417 l 785 281 l 535 281 l 535 29 l 399 29 l 399 281 l 153 281 z "},",":{"ha":249,"x_min":-49,"x_max":268,"o":"m 75 -181 l -49 -181 l 103 188 l 268 188 l 75 -181 z "},"-":{"ha":413,"x_min":100,"x_max":482,"o":"m 100 301 l 135 438 l 482 438 l 449 301 l 100 301 z "},".":{"ha":221,"x_min":35,"x_max":229,"o":"m 35 0 l 76 188 l 229 188 l 188 0 l 35 0 z "},"/":{"ha":621,"x_min":54,"x_max":792,"o":"m 196 -25 l 54 25 l 651 990 l 792 940 l 196 -25 z "},":":{"ha":226,"x_min":36,"x_max":332,"o":"m 138 432 l 179 619 l 332 619 l 290 432 l 138 432 m 36 0 l 78 188 l 231 188 l 189 0 l 36 0 z "},";":{"ha":258,"x_min":-43,"x_max":356,"o":"m -43 -181 l 108 188 l 274 188 l 81 -181 l -43 -181 m 161 432 l 203 619 l 356 619 l 314 432 l 161 432 z "},"<":{"ha":778,"x_min":154,"x_max":724,"o":"m 724 524 l 314 351 l 724 171 l 724 15 l 154 286 l 154 411 l 724 678 l 724 524 z "},"=":{"ha":778,"x_min":165,"x_max":774,"o":"m 165 418 l 165 554 l 774 554 l 774 418 l 165 418 m 165 143 l 165 279 l 774 279 l 774 143 l 165 143 z "},">":{"ha":778,"x_min":213,"x_max":782,"o":"m 622 351 l 213 524 l 213 678 l 782 411 l 782 286 l 213 15 l 213 171 l 622 351 z "},"?":{"ha":589,"x_min":179,"x_max":714,"o":"m 714 765 q 669 608 714 668 q 496 454 625 549 q 401 338 413 392 l 389 282 l 247 282 q 257 390 247 340 q 392 554 271 465 q 520 663 486 624 q 554 750 554 701 q 525 815 554 799 q 446 832 496 832 q 267 817 349 832 l 236 811 l 251 931 q 471 967 375 967 q 714 765 714 967 m 179 0 l 225 203 l 378 203 l 332 0 l 179 0 z "},"@":{"ha":1317,"x_min":113,"x_max":1394,"o":"m 885 1006 q 1368 758 1278 1006 q 1394 608 1394 688 q 1367 411 1394 519 q 1229 79 1307 172 q 1028 -14 1151 -14 q 875 54 906 -14 q 748 7 826 29 q 607 -15 669 -15 q 501 17 544 -15 q 443 99 457 49 q 426 217 426 160 q 438 321 426 275 q 789 710 513 710 q 1099 669 863 710 q 1037 401 1081 597 q 993 177 993 204 q 1008 140 993 150 q 1057 129 1024 129 q 1149 193 1110 129 q 1229 426 1189 257 q 1254 588 1254 532 q 1240 698 1254 644 q 1183 792 1226 751 q 854 878 1092 878 q 477 753 617 878 q 276 372 338 629 q 254 206 254 281 q 276 66 254 132 q 344 -50 297 0 q 667 -156 444 -156 l 857 -143 l 829 -271 q 608 -283 694 -283 q 431 -258 521 -283 q 282 -186 342 -232 q 113 193 113 -54 q 135 372 113 281 q 395 858 215 711 q 885 1006 575 1006 m 576 231 q 650 114 576 115 q 843 175 733 114 q 925 561 849 239 q 786 582 842 582 q 661 513 707 582 q 589 319 615 443 q 576 231 576 271 z "},"A":{"ha":767,"x_min":25,"x_max":750,"o":"m 588 0 l 588 199 l 276 199 l 181 0 l 25 0 l 474 951 l 750 951 l 742 0 l 588 0 m 564 817 l 336 335 l 592 335 l 599 817 l 564 817 z "},"B":{"ha":799,"x_min":97,"x_max":878,"o":"m 638 951 q 878 754 878 951 q 711 490 878 581 q 790 424 768 463 q 813 326 813 386 q 717 91 813 182 q 443 0 622 0 l 97 0 l 317 951 l 638 951 m 533 417 l 349 417 l 283 133 l 474 133 q 605 185 557 133 q 653 322 653 236 q 533 417 653 417 m 613 818 l 442 818 l 378 547 l 551 547 q 672 597 624 547 q 719 725 719 647 q 694 796 719 774 q 613 818 668 818 z "},"C":{"ha":692,"x_min":146,"x_max":865,"o":"m 424 -15 q 146 258 146 -15 q 215 635 146 460 q 308 802 253 729 q 446 921 363 875 q 631 967 529 967 q 831 939 724 967 l 865 929 l 829 813 q 631 832 735 832 q 451 746 526 832 q 341 533 376 660 q 306 269 306 407 q 443 119 306 119 q 636 136 531 119 l 668 140 l 657 18 q 424 -15 531 -15 z "},"D":{"ha":842,"x_min":97,"x_max":911,"o":"m 435 0 l 97 0 l 318 951 l 619 951 q 911 665 911 951 q 797 219 911 419 q 647 60 742 121 q 435 0 553 0 m 681 328 q 698 369 681 328 q 733 499 715 411 q 751 666 751 586 q 712 781 751 746 q 589 817 672 817 l 440 817 l 285 135 l 450 135 q 586 190 525 135 q 681 328 647 244 z "},"E":{"ha":694,"x_min":97,"x_max":863,"o":"m 97 0 l 317 951 l 863 951 l 831 817 l 440 817 l 379 547 l 693 547 l 661 411 l 349 411 l 285 135 l 676 135 l 644 0 l 97 0 z "},"F":{"ha":665,"x_min":97,"x_max":853,"o":"m 97 0 l 318 951 l 853 951 l 821 817 l 440 817 l 367 490 l 686 490 l 653 356 l 335 356 l 253 0 l 97 0 z "},"G":{"ha":792,"x_min":149,"x_max":932,"o":"m 451 -15 q 149 271 149 -15 q 225 667 149 492 q 464 928 310 856 q 631 967 549 967 q 894 929 779 967 l 932 917 l 896 804 q 633 832 757 832 q 485 778 550 832 q 383 638 421 724 q 308 269 308 465 q 469 119 308 119 q 575 131 525 119 l 592 133 l 650 385 l 538 385 l 568 514 l 835 514 l 719 21 q 451 -15 614 -15 z "},"H":{"ha":864,"x_min":97,"x_max":985,"o":"m 611 0 l 706 417 l 349 417 l 253 0 l 97 0 l 318 951 l 472 951 l 381 551 l 738 551 l 831 951 l 985 951 l 765 0 l 611 0 z "},"I":{"ha":350,"x_min":97,"x_max":472,"o":"m 97 0 l 318 951 l 472 951 l 253 0 l 97 0 z "},"J":{"ha":382,"x_min":8,"x_max":508,"o":"m 508 951 l 329 178 q 235 -51 289 -4 q 8 -97 181 -97 l 35 39 q 130 63 106 40 q 175 181 154 86 l 354 951 l 508 951 z "},"K":{"ha":739,"x_min":97,"x_max":936,"o":"m 557 0 l 463 400 l 343 392 l 253 0 l 97 0 l 318 951 l 472 951 l 374 528 l 479 536 l 765 951 l 936 951 l 603 474 l 719 0 l 557 0 z "},"L":{"ha":593,"x_min":97,"x_max":617,"o":"m 586 0 l 97 0 l 318 951 l 472 951 l 285 135 l 617 135 l 586 0 z "},"M":{"ha":1090,"x_min":97,"x_max":1213,"o":"m 97 0 l 318 951 l 564 951 l 592 210 l 963 951 l 1213 951 l 993 0 l 838 0 l 1028 817 l 1017 817 l 629 39 l 479 39 l 450 817 l 440 817 l 253 0 l 97 0 z "},"N":{"ha":892,"x_min":97,"x_max":1014,"o":"m 97 0 l 318 951 l 572 951 l 664 163 l 685 163 l 864 951 l 1014 951 l 794 0 l 551 0 l 451 799 l 431 799 l 244 0 l 97 0 z "},"O":{"ha":861,"x_min":147,"x_max":931,"o":"m 307 306 q 307 251 307 306 q 343 158 307 196 q 463 119 379 119 q 604 171 546 119 q 726 383 682 240 q 771 665 771 526 q 735 793 771 754 q 616 832 699 832 q 482 786 533 832 q 354 565 401 713 q 307 306 307 417 m 703 67 q 447 -15 597 -15 q 222 54 297 -15 q 147 272 147 124 q 203 615 147 453 q 367 871 260 778 q 628 967 474 967 q 931 679 931 967 q 873 324 931 490 q 703 67 815 157 z "},"P":{"ha":760,"x_min":97,"x_max":871,"o":"m 478 294 l 321 294 l 253 0 l 97 0 l 318 951 l 603 951 q 807 892 743 951 q 871 701 871 832 q 767 402 871 510 q 478 294 663 294 m 500 429 q 657 503 601 429 q 713 700 713 576 q 684 788 713 760 q 590 817 656 817 l 440 817 l 351 429 l 500 429 z "},"Q":{"ha":861,"x_min":147,"x_max":931,"o":"m 444 -15 q 222 54 297 -15 q 147 272 147 124 q 203 615 147 453 q 367 871 260 778 q 628 967 474 967 q 931 679 931 967 q 873 324 931 490 q 703 67 815 157 q 647 32 682 49 l 714 -160 l 568 -208 l 507 -11 q 444 -15 475 -15 m 307 306 q 307 251 307 306 q 343 158 307 196 q 463 119 379 119 q 604 171 546 119 q 726 383 682 240 q 771 665 771 526 q 735 793 771 754 q 616 832 699 832 q 482 786 533 832 q 354 565 401 713 q 307 306 307 417 z "},"R":{"ha":779,"x_min":97,"x_max":872,"o":"m 600 951 q 806 892 739 951 q 872 697 872 832 q 806 470 872 561 q 646 347 740 379 l 735 0 l 581 0 l 503 326 l 328 326 l 253 0 l 97 0 l 318 951 l 600 951 m 518 460 q 660 526 607 460 q 713 677 713 593 q 685 790 713 761 q 589 818 657 818 l 442 818 l 358 460 l 518 460 z "},"S":{"ha":690,"x_min":74,"x_max":817,"o":"m 789 810 q 550 835 639 835 q 415 793 461 835 q 369 676 369 751 q 397 606 369 629 q 527 542 424 583 q 670 453 631 500 q 710 314 710 406 q 615 71 710 157 q 357 -15 519 -15 q 224 -3 294 -15 q 114 21 153 8 l 74 33 l 99 146 q 358 119 258 119 q 551 296 551 119 q 525 367 551 344 q 399 431 499 390 q 256 520 300 471 q 213 660 213 569 q 301 882 213 797 q 540 967 390 967 q 672 956 603 967 q 778 933 740 944 l 817 921 l 789 810 z "},"T":{"ha":640,"x_min":201,"x_max":847,"o":"m 201 817 l 233 951 l 847 951 l 815 817 l 585 817 l 396 0 l 242 0 l 429 817 l 201 817 z "},"U":{"ha":825,"x_min":149,"x_max":956,"o":"m 315 313 q 303 210 303 257 q 444 119 303 119 q 584 164 540 119 q 651 308 628 208 l 800 951 l 956 951 l 807 308 q 680 62 768 139 q 444 -15 592 -15 q 149 193 149 -15 q 165 335 149 251 l 308 951 l 464 951 l 315 313 z "},"V":{"ha":765,"x_min":238,"x_max":958,"o":"m 803 951 l 958 951 l 518 0 l 238 0 l 243 951 l 397 951 l 381 135 l 433 135 l 803 951 z "},"W":{"ha":1179,"x_min":208,"x_max":1367,"o":"m 249 951 l 404 951 l 351 143 l 379 143 l 719 938 l 889 938 l 851 143 l 878 143 l 1213 951 l 1367 951 l 958 0 l 721 0 l 758 732 l 453 0 l 208 0 l 249 951 z "},"X":{"ha":718,"x_min":8,"x_max":925,"o":"m 404 951 l 496 590 l 760 951 l 925 951 l 561 476 l 703 0 l 542 0 l 443 364 l 174 0 l 8 0 l 378 479 l 240 951 l 404 951 z "},"Y":{"ha":693,"x_min":226,"x_max":906,"o":"m 906 951 l 510 404 l 414 0 l 269 0 l 365 414 l 226 951 l 383 951 l 469 549 l 742 951 l 906 951 z "},"Z":{"ha":683,"x_min":51,"x_max":851,"o":"m 240 817 l 272 951 l 851 951 l 813 781 l 264 169 l 256 135 l 663 135 l 631 0 l 51 0 l 89 168 l 635 782 l 643 817 l 240 817 z "},"[":{"ha":360,"x_min":3,"x_max":582,"o":"m 285 1038 l 582 1038 l 551 908 l 410 908 l 189 -40 l 329 -40 l 297 -169 l 3 -169 l 285 1038 z "},"\\":{"ha":638,"x_min":260,"x_max":600,"o":"m 600 6 l 443 0 l 260 969 l 418 975 l 600 6 z "},"]":{"ha":358,"x_min":-22,"x_max":557,"o":"m 275 -169 l -22 -169 l 8 -40 l 150 -40 l 371 908 l 231 908 l 263 1038 l 557 1038 l 275 -169 z "},"^":{"ha":778,"x_min":114,"x_max":775,"o":"m 617 439 l 444 769 l 272 439 l 114 439 l 378 917 l 508 917 l 775 439 l 617 439 z "},"_":{"ha":724,"x_min":-7,"x_max":647,"o":"m 25 -111 l 647 -111 l 615 -253 l -7 -253 l 25 -111 z "},"`":{"ha":719,"x_min":361,"x_max":718,"o":"m 433 1054 l 718 926 l 654 817 l 361 932 l 433 1054 z "},"a":{"ha":717,"x_min":117,"x_max":788,"o":"m 304 -15 q 163 47 208 -15 q 117 202 117 108 q 138 379 117 296 q 200 538 160 463 q 310 662 240 614 q 468 710 381 710 q 729 679 546 710 l 788 669 l 683 219 l 646 3 l 497 -3 q 518 124 513 97 q 369 0 453 38 q 304 -15 336 -15 m 615 561 q 465 582 521 582 q 361 519 410 582 q 269 217 269 404 q 288 140 269 165 q 347 114 307 114 q 433 151 386 114 q 513 225 481 188 l 544 263 l 615 561 z "},"b":{"ha":715,"x_min":88,"x_max":758,"o":"m 560 710 q 758 490 758 710 q 719 250 758 363 q 597 62 681 138 q 400 -14 514 -14 q 136 17 275 -14 l 88 26 l 307 983 l 458 983 l 375 624 q 463 683 407 656 q 560 710 518 710 m 261 129 q 395 114 338 114 q 495 155 453 114 q 560 256 538 196 q 604 475 604 378 q 586 552 604 524 q 526 581 568 581 q 440 558 483 581 q 371 514 397 536 l 344 490 l 261 129 z "},"c":{"ha":565,"x_min":119,"x_max":676,"o":"m 483 710 q 647 683 563 710 l 676 674 l 638 563 q 478 579 538 579 q 326 478 379 579 q 274 247 274 378 q 394 115 274 115 q 521 126 454 115 l 546 131 l 535 17 q 337 -15 436 -15 q 178 44 238 -15 q 119 213 119 104 q 214 568 119 426 q 483 710 308 710 z "},"d":{"ha":717,"x_min":117,"x_max":861,"o":"m 306 -15 q 165 43 213 -15 q 117 217 117 101 q 155 442 117 332 q 275 631 193 553 q 465 708 357 708 q 611 689 519 708 l 640 682 l 710 983 l 861 983 l 633 0 l 488 0 l 506 94 q 478 64 496 82 q 407 15 460 46 q 306 -15 354 -15 m 613 561 q 467 581 528 581 q 359 518 406 581 q 291 373 313 456 q 269 213 269 290 q 354 113 269 113 q 431 144 385 113 q 508 208 478 176 l 539 240 l 613 561 z "},"e":{"ha":653,"x_min":118,"x_max":724,"o":"m 269 213 q 269 190 269 213 q 301 140 269 167 q 381 114 333 114 q 578 131 481 114 l 614 138 l 599 24 q 343 -15 472 -15 q 118 210 118 -15 q 206 550 118 407 q 325 665 250 622 q 496 708 400 708 q 724 518 724 708 q 633 340 724 390 q 336 290 542 290 l 278 290 q 269 213 269 260 m 361 404 q 526 429 478 404 q 575 517 575 454 q 489 586 575 586 q 296 404 344 586 l 361 404 z "},"f":{"ha":444,"x_min":40,"x_max":651,"o":"m 526 999 q 633 979 583 999 l 651 972 l 624 860 q 531 869 572 869 q 469 838 489 869 q 431 735 449 806 l 421 694 l 585 694 l 553 565 l 393 565 l 261 0 l 175 -300 l 40 -300 l 242 564 l 172 564 l 203 694 l 271 694 l 281 736 q 367 940 314 881 q 526 999 421 999 z "},"g":{"ha":663,"x_min":18,"x_max":794,"o":"m 636 -56 q 544 -247 636 -172 q 308 -322 453 -322 q 18 -136 18 -322 q 67 -22 18 -68 q 193 63 115 24 q 168 123 168 88 q 188 192 168 158 q 228 244 208 225 l 249 264 q 153 432 153 315 q 231 629 153 549 q 438 710 308 710 q 567 692 493 710 l 590 686 l 794 694 l 765 571 l 667 571 q 679 489 679 539 q 599 304 679 383 q 388 225 518 225 l 335 232 q 304 168 304 192 q 330 135 304 144 q 443 115 356 126 q 583 65 531 103 q 636 -56 636 26 m 261 18 q 190 -35 222 -1 q 157 -106 157 -68 q 191 -169 157 -143 q 301 -196 225 -196 q 435 -165 378 -196 q 493 -72 493 -135 q 468 -26 493 -39 q 365 -1 443 -12 q 261 18 286 11 m 399 349 q 501 393 463 349 q 540 492 540 438 q 431 586 540 586 q 331 542 369 586 q 293 442 293 499 q 399 349 293 349 z "},"h":{"ha":704,"x_min":83,"x_max":736,"o":"m 569 710 q 695 659 654 710 q 736 537 736 608 q 707 344 736 465 l 628 0 l 478 0 l 556 335 q 581 485 581 435 q 565 557 581 535 q 515 579 549 579 q 438 551 481 579 q 368 493 396 522 l 340 464 l 233 0 l 83 0 l 310 983 l 460 983 l 374 604 q 403 634 385 617 q 472 681 421 651 q 569 710 524 710 z "},"i":{"ha":315,"x_min":83,"x_max":456,"o":"m 83 0 l 243 694 l 393 694 l 233 0 l 83 0 m 265 797 l 303 960 l 456 960 l 418 797 l 265 797 z "},"j":{"ha":315,"x_min":-108,"x_max":453,"o":"m 83 0 l 243 694 l 393 694 l 233 0 q 185 -153 208 -106 q 128 -222 161 -200 q -60 -322 56 -272 l -108 -201 q 35 -112 7 -143 q 83 0 64 -82 m 264 790 l 301 951 l 453 951 l 417 790 l 264 790 z "},"k":{"ha":636,"x_min":83,"x_max":774,"o":"m 233 0 l 83 0 l 310 983 l 460 983 l 331 425 l 396 432 l 606 693 l 774 693 l 508 365 l 618 0 l 463 0 l 374 307 l 303 301 l 233 0 z "},"l":{"ha":321,"x_min":85,"x_max":463,"o":"m 85 0 l 313 983 l 463 983 l 236 0 l 85 0 z "},"m":{"ha":1076,"x_min":83,"x_max":1108,"o":"m 579 489 q 506 579 579 579 q 436 551 478 579 q 367 493 394 522 l 340 464 l 233 0 l 83 0 l 243 694 l 388 694 l 372 604 q 383 615 376 608 q 410 641 389 622 q 456 674 432 660 q 572 710 514 710 q 666 683 629 710 q 711 628 703 656 l 721 600 q 755 631 733 613 q 835 679 776 649 q 943 710 893 710 q 1068 659 1028 710 q 1108 539 1108 608 q 1082 344 1108 469 l 1003 0 l 851 0 l 932 335 q 957 485 957 451 q 888 579 957 579 q 818 554 858 579 q 753 504 778 529 l 728 479 q 706 344 721 404 l 626 0 l 476 0 l 554 335 q 579 489 579 451 z "},"n":{"ha":703,"x_min":83,"x_max":736,"o":"m 569 710 q 695 659 654 710 q 736 535 736 608 q 707 346 736 463 l 628 0 l 478 0 l 556 335 q 581 493 581 451 q 565 557 581 535 q 513 579 549 579 q 436 551 478 579 q 367 493 394 522 l 340 464 l 233 0 l 83 0 l 243 694 l 388 694 l 372 603 q 401 633 383 615 q 472 680 419 650 q 569 710 524 710 z "},"o":{"ha":688,"x_min":118,"x_max":728,"o":"m 468 708 q 728 458 728 708 q 689 233 728 339 q 567 56 650 126 q 375 -15 485 -15 q 118 232 118 -15 q 160 459 118 351 q 283 638 201 567 q 468 708 365 708 m 375 113 q 522 218 465 113 q 578 460 578 324 q 550 549 578 517 q 468 581 522 581 q 324 474 379 581 q 268 231 268 367 q 375 113 268 113 z "},"p":{"ha":715,"x_min":14,"x_max":760,"o":"m 567 710 q 712 650 664 710 q 760 478 760 590 q 722 255 760 367 q 601 65 683 143 q 411 -14 519 -14 q 263 6 340 -14 l 235 13 l 163 -299 l 14 -299 l 243 694 l 390 694 l 371 600 q 400 631 382 613 q 470 679 418 649 q 567 710 522 710 m 521 581 q 445 549 492 581 q 367 486 399 517 l 336 454 l 264 135 q 410 114 349 114 q 517 177 471 114 q 585 322 564 240 q 607 479 607 403 q 521 581 607 581 z "},"q":{"ha":714,"x_min":117,"x_max":786,"o":"m 307 -15 q 165 44 214 -15 q 117 217 117 103 q 156 443 117 332 q 276 631 194 554 q 465 708 358 708 q 731 678 571 708 l 786 668 l 565 -296 l 415 -296 l 506 96 q 495 84 501 92 q 467 57 489 76 q 424 22 446 38 q 307 -15 365 -15 m 613 561 q 467 581 528 581 q 361 520 407 581 q 292 377 315 460 q 269 215 269 294 q 354 114 269 114 q 431 145 385 114 q 508 208 476 176 l 539 240 l 613 561 z "},"r":{"ha":453,"x_min":83,"x_max":600,"o":"m 83 0 l 243 694 l 392 694 l 368 593 q 483 666 415 631 q 600 710 550 701 l 557 554 q 378 481 494 536 l 342 464 l 233 0 l 83 0 z "},"s":{"ha":599,"x_min":67,"x_max":681,"o":"m 425 581 q 340 553 371 581 q 308 490 308 525 q 331 442 308 456 q 413 410 353 428 q 500 382 472 393 q 556 353 528 371 q 606 243 606 321 q 521 51 606 117 q 299 -15 436 -15 q 97 15 193 -15 l 67 25 l 94 138 q 304 113 226 113 q 453 214 453 113 q 431 253 453 240 q 328 286 408 265 q 203 342 249 307 q 157 446 157 378 q 239 638 157 567 q 440 708 321 708 q 650 681 556 708 l 681 672 l 653 560 q 425 581 515 581 z "},"t":{"ha":450,"x_min":146,"x_max":585,"o":"m 301 164 q 356 113 301 113 l 456 121 l 443 11 q 298 -15 371 -15 q 185 24 225 -15 q 146 123 146 63 q 167 269 146 183 l 236 565 l 156 565 l 189 694 l 268 694 l 311 885 l 463 885 l 418 694 l 585 694 l 553 565 l 388 565 l 315 257 q 301 164 301 199 z "},"u":{"ha":703,"x_min":128,"x_max":781,"o":"m 294 -15 q 169 35 210 -15 q 128 171 128 86 q 156 349 128 222 l 235 694 l 385 694 l 308 360 q 283 206 283 260 q 356 115 283 115 q 426 144 385 115 q 496 201 468 172 l 524 231 l 631 694 l 781 694 l 621 0 l 476 0 l 492 92 q 463 62 481 79 q 392 15 444 44 q 294 -15 340 -15 z "},"v":{"ha":638,"x_min":182,"x_max":775,"o":"m 182 694 l 331 694 l 324 125 l 357 125 l 622 694 l 775 694 l 438 0 l 188 0 l 182 694 z "},"w":{"ha":1039,"x_min":165,"x_max":1168,"o":"m 193 694 l 344 694 l 314 129 l 343 129 l 592 681 l 764 681 l 751 129 l 781 129 l 1015 694 l 1168 694 l 871 0 l 615 0 l 628 481 l 417 0 l 165 0 l 193 694 z "},"x":{"ha":590,"x_min":15,"x_max":735,"o":"m 179 694 l 333 694 l 404 456 l 581 694 l 735 694 l 454 336 l 571 0 l 417 0 l 347 232 l 174 0 l 15 0 l 294 347 l 179 694 z "},"y":{"ha":639,"x_min":143,"x_max":775,"o":"m 182 694 l 331 694 l 324 125 l 354 125 l 622 694 l 775 694 l 294 -299 l 143 -299 l 293 0 l 188 0 l 182 694 z "},"z":{"ha":578,"x_min":50,"x_max":689,"o":"m 179 565 l 211 694 l 689 694 l 658 569 l 254 129 l 560 129 l 526 0 l 50 0 l 76 126 l 479 565 l 179 565 z "},"{":{"ha":415,"x_min":100,"x_max":638,"o":"m 261 433 q 347 317 347 390 q 315 170 347 281 q 283 29 283 60 q 382 -50 283 -50 l 346 -181 q 190 -136 246 -179 q 135 -14 135 -93 q 165 133 135 21 q 196 272 196 246 q 100 388 196 343 l 126 499 q 243 549 214 521 q 286 636 272 578 q 308 743 292 657 q 325 835 324 829 q 431 997 360 949 q 638 1050 503 1044 l 613 919 q 508 883 542 914 q 460 793 474 851 l 428 622 q 372 499 408 540 q 261 433 335 458 z "},"|":{"ha":451,"x_min":229,"x_max":379,"o":"m 229 -299 l 229 983 l 379 983 l 379 -299 l 229 -299 z "},"}":{"ha":414,"x_min":-24,"x_max":514,"o":"m 353 432 q 267 547 267 475 q 299 695 267 585 q 331 836 331 806 q 232 915 331 915 l 268 1046 q 424 1001 368 1044 q 479 879 479 958 q 449 732 479 844 q 418 593 418 619 q 514 478 418 522 l 488 367 q 371 316 400 344 q 328 229 342 288 q 306 122 322 208 q 289 31 290 36 q 183 -131 254 -83 q -24 -185 111 -179 l 1 -54 q 106 -17 72 -49 q 154 72 140 14 l 186 243 q 242 366 206 325 q 353 432 279 407 z "},"~":{"ha":778,"x_min":171,"x_max":771,"o":"m 698 275 q 674 263 698 275 q 612 251 650 251 q 466 287 574 251 q 332 322 358 322 q 269 308 306 322 q 208 278 232 293 l 185 264 l 171 386 q 338 458 258 458 q 482 423 378 458 q 614 388 586 388 q 735 431 661 388 l 758 444 l 771 324 q 698 275 746 299 z "}," ":{"ha":306,"x_min":0,"x_max":0,"o":""},"¡":{"ha":233,"x_min":-26,"x_max":353,"o":"m 271 353 l 132 -278 l -26 -278 l 131 353 l 271 353 m 353 694 l 310 507 l 157 507 l 200 694 l 353 694 z "},"¢":{"ha":778,"x_min":208,"x_max":760,"o":"m 282 75 q 261 89 282 75 q 226 145 240 103 q 210 217 211 188 q 208 274 208 247 q 222 346 208 300 q 338 565 258 489 q 531 647 418 640 l 565 799 l 688 799 l 650 644 l 760 631 l 722 503 q 567 510 617 510 q 435 470 481 510 q 368 346 389 431 q 358 276 358 308 q 372 224 358 244 q 493 185 397 185 l 653 192 l 628 64 q 510 53 564 56 l 474 -107 l 353 -107 l 386 44 q 282 75 324 47 z "},"£":{"ha":778,"x_min":107,"x_max":857,"o":"m 822 799 q 685 810 731 810 q 617 799 639 810 q 581 763 596 789 q 540 643 558 722 l 531 601 l 771 601 l 740 472 l 501 472 l 422 129 l 578 129 l 676 153 l 674 24 l 568 0 l 107 0 l 136 129 l 269 129 l 347 472 l 239 472 l 269 601 l 376 601 l 392 661 q 487 878 429 814 q 664 943 544 943 q 825 921 719 943 l 857 914 l 822 799 z "},"¤":{"ha":778,"x_min":140,"x_max":800,"o":"m 597 119 q 470 86 538 86 q 343 119 403 86 l 244 19 l 140 124 l 239 222 q 207 350 207 282 q 239 476 207 418 l 140 576 l 244 681 l 343 581 q 470 613 403 613 q 597 581 538 613 l 696 681 l 800 576 l 700 476 q 732 350 732 418 q 700 222 732 282 l 800 124 l 696 19 l 597 119 m 382 261 q 400 243 382 261 q 470 225 418 225 q 558 261 522 225 q 594 350 594 297 q 558 439 594 403 q 470 475 522 475 q 382 439 418 475 q 346 350 346 403 q 382 261 346 297 z "},"¥":{"ha":778,"x_min":144,"x_max":992,"o":"m 194 404 l 224 536 l 354 536 l 201 917 l 368 917 l 513 567 l 792 917 l 992 917 l 679 536 l 808 536 l 778 404 l 578 404 l 563 385 l 549 328 l 761 328 l 731 194 l 518 194 l 472 0 l 318 0 l 365 194 l 144 194 l 176 328 l 394 328 l 408 386 l 403 404 l 194 404 z "},"¦":{"ha":454,"x_min":231,"x_max":382,"o":"m 231 983 l 382 983 l 382 465 l 231 465 l 231 983 m 231 228 l 382 228 l 382 -299 l 231 -299 l 231 228 z "},"§":{"ha":667,"x_min":33,"x_max":776,"o":"m 742 736 q 528 757 600 757 q 414 726 457 757 q 371 639 371 694 q 392 594 371 611 q 439 568 413 576 q 493 554 465 560 q 526 547 521 549 q 693 381 693 511 q 578 153 693 282 q 601 80 601 117 q 595 9 601 43 q 567 -71 589 -25 q 510 -152 544 -117 q 412 -212 476 -187 q 286 -237 347 -237 q 72 -217 186 -237 l 33 -210 l 76 -83 q 287 -103 214 -103 q 406 -68 360 -103 q 453 8 453 -33 q 429 64 453 50 q 302 107 403 81 q 163 173 201 133 q 124 271 124 213 q 150 381 124 329 q 251 501 190 457 q 224 593 224 529 q 245 705 224 657 q 306 796 267 753 q 413 866 346 839 q 539 893 479 893 q 742 871 633 893 l 776 864 l 742 736 m 338 449 q 300 390 322 432 q 278 317 278 347 q 298 274 278 288 q 367 247 318 260 q 479 208 447 222 q 515 268 493 222 q 538 344 538 314 q 514 392 538 375 q 422 423 490 408 q 338 449 353 438 z "},"¨":{"ha":814,"x_min":315,"x_max":739,"o":"m 315 846 l 353 1008 l 476 1008 l 439 846 l 315 846 m 578 846 l 614 1008 l 739 1008 l 700 846 l 578 846 z "},"©":{"ha":892,"x_min":210,"x_max":961,"o":"m 588 215 q 506 215 588 215 q 317 327 424 215 q 210 604 210 439 q 317 880 210 769 q 588 990 424 990 q 856 878 751 990 q 961 601 961 765 q 856 326 961 436 q 588 215 751 215 m 371 826 q 328 780 371 826 q 285 603 285 733 q 370 381 285 472 q 584 289 456 289 q 799 380 713 289 q 885 602 885 471 q 799 826 885 733 q 585 918 713 918 q 371 826 457 918 m 597 826 q 707 808 650 826 l 699 708 q 608 718 649 718 q 553 694 567 718 q 540 606 540 669 q 554 515 540 543 q 604 488 568 488 l 699 496 l 707 400 q 581 378 663 378 q 461 428 500 378 q 422 603 422 479 q 463 776 422 726 q 597 826 503 826 z "},"ª":{"ha":465,"x_min":156,"x_max":596,"o":"m 408 503 q 266 463 332 463 q 174 500 200 463 q 157 553 157 525 q 219 700 157 653 q 347 735 263 731 l 450 740 l 458 772 q 450 799 463 790 q 406 808 438 808 l 231 799 l 246 886 q 442 915 351 915 q 569 883 532 915 q 596 828 596 861 q 589 765 596 794 l 544 571 q 572 556 553 558 l 549 461 q 447 471 472 461 q 408 503 421 481 m 289 594 q 328 564 289 564 q 401 581 360 564 l 415 586 l 432 658 l 351 653 q 290 607 300 649 q 289 594 289 600 z "},"«":{"ha":647,"x_min":90,"x_max":753,"o":"m 753 589 l 710 440 l 542 336 l 658 218 l 621 82 l 401 306 l 428 375 l 753 589 m 442 589 l 399 440 l 231 336 l 347 218 l 310 82 l 90 306 l 117 375 l 442 589 z "},"¬":{"ha":778,"x_min":163,"x_max":764,"o":"m 163 488 l 764 488 l 764 153 l 628 153 l 628 353 l 163 353 l 163 488 z "},"®":{"ha":892,"x_min":210,"x_max":961,"o":"m 588 215 q 506 215 588 215 q 317 327 424 215 q 210 604 210 439 q 316 880 210 769 q 587 990 422 990 q 856 878 751 990 q 961 601 961 765 q 856 326 961 436 q 588 215 751 215 m 372 826 q 328 780 372 826 q 285 603 285 733 q 372 381 285 472 q 586 289 458 289 q 799 380 714 289 q 885 602 885 471 q 799 826 885 733 q 585 918 713 918 q 372 826 458 918 m 535 525 l 535 388 l 424 388 l 424 817 l 597 817 q 756 678 756 817 q 742 595 756 625 q 696 543 729 565 l 761 388 l 644 388 l 593 525 l 535 525 m 533 732 l 533 608 l 592 608 q 649 670 649 608 q 583 732 649 732 l 533 732 z "},"¯":{"ha":628,"x_min":308,"x_max":746,"o":"m 308 878 l 336 1000 l 746 1000 l 717 878 l 308 878 z "},"°":{"ha":778,"x_min":361,"x_max":768,"o":"m 418 618 q 390 646 418 618 q 361 764 361 674 q 418 910 361 854 q 565 967 475 967 q 712 910 656 967 q 768 764 768 854 q 712 618 768 674 q 565 563 656 563 q 418 618 475 563 m 483 848 q 467 832 483 848 q 451 764 451 815 q 483 681 451 713 q 565 649 514 649 q 649 681 617 649 q 682 764 682 713 q 649 848 682 815 q 565 881 617 881 q 483 848 514 881 z "},"±":{"ha":778,"x_min":140,"x_max":772,"o":"m 140 389 l 140 525 l 386 525 l 386 685 l 522 685 l 522 525 l 772 525 l 772 389 l 522 389 l 522 233 l 386 233 l 386 389 l 140 389 m 140 174 l 772 174 l 772 38 l 140 38 l 140 174 z "},"²":{"ha":389,"x_min":190,"x_max":581,"o":"m 300 1097 q 467 1111 397 1111 q 579 1029 579 1111 q 456 832 579 914 l 374 774 l 524 774 l 497 664 l 190 664 l 215 768 l 350 867 q 440 961 432 924 q 433 987 446 979 q 390 994 419 994 l 276 985 l 300 1097 z "},"³":{"ha":389,"x_min":183,"x_max":583,"o":"m 299 1099 q 460 1111 390 1111 q 556 1087 529 1111 q 582 1038 582 1063 q 506 892 582 932 q 542 829 542 875 q 536 788 542 811 q 344 650 501 650 q 208 658 283 650 l 183 661 l 218 768 q 351 760 299 760 q 413 797 403 760 q 414 808 414 803 q 372 833 414 833 l 281 833 l 306 933 l 394 933 q 443 969 433 933 q 438 994 447 986 q 403 1001 428 1001 l 279 993 l 299 1099 z "},"´":{"ha":768,"x_min":356,"x_max":713,"o":"m 368 813 l 356 932 l 700 1060 l 713 925 l 368 813 z "},"µ":{"ha":778,"x_min":47,"x_max":821,"o":"m 324 206 q 396 115 324 115 q 467 144 425 115 q 536 201 508 172 l 564 231 l 671 694 l 821 694 l 661 0 l 517 0 l 532 92 q 503 62 521 79 q 433 15 485 44 q 338 -15 381 -15 q 265 -3 294 -15 l 197 -299 l 47 -299 l 188 315 l 275 694 l 425 694 l 338 311 q 324 206 324 249 z "},"¶":{"ha":779,"x_min":197,"x_max":944,"o":"m 197 646 q 287 872 197 772 q 511 972 376 972 l 944 972 l 915 850 l 847 850 l 644 0 l 522 0 l 725 850 l 614 850 l 411 0 l 288 0 l 393 440 q 244 500 292 442 q 197 646 197 558 z "},"·":{"ha":221,"x_min":106,"x_max":304,"o":"m 106 310 l 151 514 l 304 514 l 258 310 l 106 310 z "},"¸":{"ha":1099,"x_min":418,"x_max":704,"o":"m 532 -307 q 433 -297 488 -307 l 418 -294 l 442 -200 q 515 -203 488 -203 q 578 -162 568 -203 q 572 -133 583 -140 q 533 -126 560 -126 l 493 -126 l 524 7 l 588 7 l 571 -53 l 579 -53 q 703 -137 703 -53 q 699 -172 703 -153 q 532 -307 667 -307 z "},"¹":{"ha":389,"x_min":271,"x_max":551,"o":"m 271 996 l 439 1097 l 551 1097 l 444 664 l 322 664 l 396 963 l 306 910 l 271 996 z "},"º":{"ha":475,"x_min":171,"x_max":622,"o":"m 446 915 q 560 891 511 915 q 617 817 608 867 q 621 766 621 796 q 610 693 621 736 q 517 514 581 567 q 339 461 454 461 q 215 502 257 461 q 172 613 172 543 q 174 636 172 617 q 185 697 175 656 q 276 865 213 815 q 446 915 339 915 m 304 629 q 304 615 304 629 q 318 586 304 600 q 371 572 332 572 q 435 599 410 572 q 474 674 461 625 q 488 750 488 724 q 422 808 488 808 q 354 784 379 808 q 317 709 329 760 q 304 629 304 658 z "},"»":{"ha":663,"x_min":53,"x_max":728,"o":"m 376 82 l 419 231 l 588 335 l 471 453 l 508 589 l 728 365 l 701 296 l 376 82 m 53 82 l 96 231 l 264 335 l 147 453 l 185 589 l 404 365 l 378 296 l 53 82 z "},"¼":{"ha":857,"x_min":146,"x_max":890,"o":"m 232 996 l 400 1097 l 513 1097 l 406 664 l 283 664 l 357 963 l 267 910 l 232 996 m 288 -25 l 146 25 l 743 990 l 883 940 l 288 -25 m 697 0 l 711 57 l 519 57 l 544 158 l 689 433 l 824 433 l 674 167 l 739 167 l 785 290 l 890 290 l 860 167 l 883 167 l 857 57 l 832 57 l 818 0 l 697 0 z "},"½":{"ha":881,"x_min":146,"x_max":943,"o":"m 232 996 l 400 1097 l 513 1097 l 406 664 l 283 664 l 357 963 l 267 910 l 232 996 m 288 -25 l 146 25 l 743 990 l 883 940 l 288 -25 m 663 433 q 831 447 760 447 q 942 365 942 447 q 818 168 942 250 l 736 110 l 886 110 l 860 0 l 553 0 l 578 104 l 713 203 q 803 297 794 260 q 795 323 808 315 q 753 331 782 331 l 639 321 l 663 433 z "},"¾":{"ha":863,"x_min":153,"x_max":897,"o":"m 281 1099 q 442 1111 372 1111 q 538 1087 511 1111 q 564 1038 564 1063 q 488 892 564 932 q 524 829 524 875 q 518 788 524 811 q 326 650 483 650 q 190 658 265 650 l 165 661 l 200 768 q 332 760 281 760 q 394 797 383 760 q 390 825 400 817 q 354 833 379 833 l 263 833 l 288 933 l 376 933 q 407 943 393 933 q 425 969 421 953 q 419 994 429 986 q 385 1001 410 1001 l 261 993 l 281 1099 m 294 -25 l 153 25 l 750 990 l 890 940 l 294 -25 m 704 0 l 718 57 l 526 57 l 551 158 l 696 433 l 831 433 l 681 167 l 746 167 l 792 290 l 897 290 l 867 167 l 890 167 l 864 57 l 839 57 l 825 0 l 704 0 z "},"¿":{"ha":585,"x_min":35,"x_max":569,"o":"m 35 -71 q 79 86 35 26 q 253 240 124 146 q 347 357 336 303 l 360 413 l 501 413 q 492 304 501 354 q 357 140 478 229 q 228 32 263 71 q 194 -56 194 -7 q 224 -121 194 -104 q 303 -137 253 -137 q 483 -122 400 -137 l 513 -117 l 497 -236 q 278 -272 374 -272 q 35 -71 35 -272 m 569 694 l 524 492 l 371 492 l 417 694 l 569 694 z "},"À":{"ha":767,"x_min":25,"x_max":806,"o":"m 519 1307 l 806 1179 l 738 1063 l 446 1175 l 519 1307 m 588 0 l 588 199 l 276 199 l 181 0 l 25 0 l 474 951 l 750 951 l 742 0 l 588 0 m 564 817 l 336 335 l 592 335 l 599 817 l 564 817 z "},"Á":{"ha":767,"x_min":25,"x_max":858,"o":"m 513 1075 l 500 1193 l 844 1321 l 858 1186 l 513 1075 m 588 0 l 588 199 l 276 199 l 181 0 l 25 0 l 474 951 l 750 951 l 742 0 l 588 0 m 564 817 l 336 335 l 592 335 l 599 817 l 564 817 z "},"Â":{"ha":767,"x_min":25,"x_max":856,"o":"m 399 1090 l 635 1293 l 722 1293 l 856 1090 l 718 1090 l 665 1182 l 558 1090 l 399 1090 m 588 0 l 588 199 l 276 199 l 181 0 l 25 0 l 474 951 l 750 951 l 742 0 l 588 0 m 564 817 l 336 335 l 592 335 l 599 817 l 564 817 z "},"Ã":{"ha":767,"x_min":25,"x_max":878,"o":"m 728 1097 q 620 1131 693 1097 q 529 1164 547 1164 q 429 1119 499 1164 l 407 1104 l 403 1210 q 557 1297 496 1297 q 672 1264 600 1297 q 757 1231 743 1231 q 801 1244 771 1231 q 853 1272 831 1258 l 875 1288 l 878 1182 q 728 1097 790 1097 m 588 0 l 588 199 l 276 199 l 181 0 l 25 0 l 474 951 l 750 951 l 742 0 l 588 0 m 564 817 l 336 335 l 592 335 l 599 817 l 564 817 z "},"Ä":{"ha":767,"x_min":25,"x_max":879,"o":"m 447 1110 l 485 1272 l 610 1272 l 571 1110 l 447 1110 m 717 1110 l 754 1272 l 879 1272 l 839 1110 l 717 1110 m 588 0 l 588 199 l 276 199 l 181 0 l 25 0 l 474 951 l 750 951 l 742 0 l 588 0 m 564 817 l 336 335 l 592 335 l 599 817 l 564 817 z "},"Å":{"ha":767,"x_min":25,"x_max":799,"o":"m 460 924 q 453 964 453 942 q 460 1010 453 986 q 533 1124 479 1086 q 661 1163 586 1163 q 772 1125 736 1163 q 797 1068 797 1100 q 750 925 797 983 l 742 0 l 588 0 l 588 199 l 276 199 l 181 0 l 25 0 l 460 924 m 564 817 l 336 335 l 592 335 l 599 817 l 564 817 m 556 1000 q 618 957 556 957 q 693 1010 681 957 q 694 1028 694 1017 q 679 1051 694 1039 q 638 1064 664 1064 q 557 1010 572 1064 q 556 1000 556 1004 z "},"Æ":{"ha":1063,"x_min":26,"x_max":1235,"o":"m 456 0 l 503 200 l 269 200 l 174 0 l 26 0 l 476 963 l 1235 963 l 1203 815 l 794 818 l 731 549 l 1060 549 l 1028 408 l 697 408 l 635 146 l 1042 146 l 1010 0 l 456 0 m 554 817 l 335 343 l 538 343 l 649 817 l 554 817 z "},"Ç":{"ha":692,"x_min":146,"x_max":865,"o":"m 424 -15 l 411 -15 l 401 -53 l 410 -53 q 533 -137 533 -53 q 529 -172 533 -153 q 363 -307 497 -307 q 264 -297 318 -307 l 249 -294 l 272 -200 q 346 -203 318 -203 q 408 -162 399 -203 q 402 -133 414 -140 q 364 -126 390 -126 l 324 -126 l 350 -10 q 146 258 146 24 q 215 635 146 460 q 308 802 253 729 q 446 921 363 875 q 631 967 529 967 q 831 939 724 967 l 865 929 l 829 813 q 631 832 735 832 q 451 746 526 832 q 341 533 376 660 q 306 269 306 407 q 443 119 306 119 q 636 136 531 119 l 668 140 l 657 18 q 424 -15 531 -15 z "},"È":{"ha":694,"x_min":97,"x_max":863,"o":"m 486 1307 l 772 1179 l 704 1063 l 413 1175 l 486 1307 m 97 0 l 317 951 l 863 951 l 831 817 l 440 817 l 379 547 l 693 547 l 661 411 l 349 411 l 285 135 l 676 135 l 644 0 l 97 0 z "},"É":{"ha":694,"x_min":97,"x_max":863,"o":"m 501 1075 l 489 1193 l 833 1321 l 847 1186 l 501 1075 m 97 0 l 317 951 l 863 951 l 831 817 l 440 817 l 379 547 l 693 547 l 661 411 l 349 411 l 285 135 l 676 135 l 644 0 l 97 0 z "},"Ê":{"ha":694,"x_min":97,"x_max":868,"o":"m 411 1092 l 647 1294 l 735 1294 l 868 1092 l 731 1092 l 678 1183 l 571 1092 l 411 1092 m 97 0 l 317 951 l 863 951 l 831 817 l 440 817 l 379 547 l 693 547 l 661 411 l 349 411 l 285 135 l 676 135 l 644 0 l 97 0 z "},"Ë":{"ha":694,"x_min":97,"x_max":863,"o":"m 425 1110 l 463 1272 l 588 1272 l 549 1110 l 425 1110 m 694 1110 l 732 1272 l 857 1272 l 817 1110 l 694 1110 m 97 0 l 317 951 l 863 951 l 831 817 l 440 817 l 379 547 l 693 547 l 661 411 l 349 411 l 285 135 l 676 135 l 644 0 l 97 0 z "},"Ì":{"ha":350,"x_min":97,"x_max":563,"o":"m 276 1307 l 563 1179 l 494 1063 l 203 1175 l 276 1307 m 97 0 l 318 951 l 472 951 l 253 0 l 97 0 z "},"Í":{"ha":350,"x_min":97,"x_max":669,"o":"m 324 1075 l 311 1193 l 656 1321 l 669 1186 l 324 1075 m 97 0 l 318 951 l 472 951 l 253 0 l 97 0 z "},"Î":{"ha":350,"x_min":97,"x_max":647,"o":"m 190 1092 l 426 1294 l 514 1294 l 647 1092 l 510 1092 l 457 1183 l 350 1092 l 190 1092 m 97 0 l 318 951 l 472 951 l 253 0 l 97 0 z "},"Ï":{"ha":350,"x_min":97,"x_max":660,"o":"m 228 1122 l 265 1285 l 390 1285 l 351 1122 l 228 1122 m 497 1122 l 535 1285 l 660 1285 l 619 1122 l 497 1122 m 97 0 l 318 951 l 472 951 l 253 0 l 97 0 z "},"Ð":{"ha":850,"x_min":106,"x_max":919,"o":"m 443 0 l 106 0 l 199 403 l 118 403 l 150 556 l 235 556 l 326 951 l 628 951 q 919 665 919 951 q 806 219 919 419 q 656 60 750 121 q 443 0 561 0 m 690 328 q 707 369 690 328 q 742 499 724 411 q 760 666 760 586 q 720 781 760 746 q 597 817 681 817 l 449 817 l 389 556 l 561 556 l 526 403 l 354 403 l 293 135 l 458 135 q 594 190 533 135 q 690 328 656 244 z "},"Ñ":{"ha":892,"x_min":97,"x_max":1014,"o":"m 785 1094 q 677 1128 750 1094 q 586 1161 604 1161 q 486 1117 556 1161 l 464 1101 l 460 1207 q 614 1294 553 1294 q 728 1261 657 1294 q 814 1228 800 1228 q 858 1242 828 1228 q 910 1269 888 1256 l 932 1285 l 935 1179 q 785 1094 847 1094 m 97 0 l 318 951 l 572 951 l 664 163 l 685 163 l 864 951 l 1014 951 l 794 0 l 551 0 l 451 799 l 431 799 l 244 0 l 97 0 z "},"Ò":{"ha":861,"x_min":147,"x_max":931,"o":"m 560 1307 l 846 1179 l 778 1063 l 486 1175 l 560 1307 m 307 306 q 307 251 307 306 q 343 158 307 196 q 463 119 379 119 q 604 171 546 119 q 726 383 682 240 q 771 665 771 526 q 735 793 771 754 q 616 832 699 832 q 482 786 533 832 q 354 565 401 713 q 307 306 307 417 m 703 67 q 447 -15 597 -15 q 222 54 297 -15 q 147 272 147 124 q 203 615 147 453 q 367 871 260 778 q 628 967 474 967 q 931 679 931 967 q 873 324 931 490 q 703 67 815 157 z "},"Ó":{"ha":861,"x_min":147,"x_max":931,"o":"m 307 306 q 307 251 307 306 q 343 158 307 196 q 463 119 379 119 q 604 171 546 119 q 726 383 682 240 q 771 665 771 526 q 735 793 771 754 q 616 832 699 832 q 482 786 533 832 q 354 565 401 713 q 307 306 307 417 m 703 67 q 447 -15 597 -15 q 222 54 297 -15 q 147 272 147 124 q 203 615 147 453 q 367 871 260 778 q 628 967 474 967 q 931 679 931 967 q 873 324 931 490 q 703 67 815 157 m 561 1075 l 549 1193 l 893 1321 l 907 1186 l 561 1075 z "},"Ô":{"ha":861,"x_min":147,"x_max":931,"o":"m 307 306 q 307 251 307 306 q 343 158 307 196 q 463 119 379 119 q 604 171 546 119 q 726 383 682 240 q 771 665 771 526 q 735 793 771 754 q 616 832 699 832 q 482 786 533 832 q 354 565 401 713 q 307 306 307 417 m 703 67 q 447 -15 597 -15 q 222 54 297 -15 q 147 272 147 124 q 203 615 147 453 q 367 871 260 778 q 628 967 474 967 q 931 679 931 967 q 873 324 931 490 q 703 67 815 157 m 453 1090 l 689 1293 l 776 1293 l 910 1090 l 772 1090 l 719 1182 l 613 1090 l 453 1090 z "},"Õ":{"ha":861,"x_min":147,"x_max":944,"o":"m 794 1094 q 687 1128 760 1094 q 596 1161 614 1161 q 496 1117 565 1161 l 474 1101 l 469 1207 q 624 1294 563 1294 q 738 1261 667 1294 q 824 1228 810 1228 q 867 1242 838 1228 q 919 1269 897 1256 l 942 1285 l 944 1179 q 794 1094 857 1094 m 307 306 q 307 251 307 306 q 343 158 307 196 q 463 119 379 119 q 604 171 546 119 q 726 383 682 240 q 771 665 771 526 q 735 793 771 754 q 616 832 699 832 q 482 786 533 832 q 354 565 401 713 q 307 306 307 417 m 703 67 q 447 -15 597 -15 q 222 54 297 -15 q 147 272 147 124 q 203 615 147 453 q 367 871 260 778 q 628 967 474 967 q 931 679 931 967 q 873 324 931 490 q 703 67 815 157 z "},"Ö":{"ha":861,"x_min":147,"x_max":931,"o":"m 476 1104 l 513 1265 l 650 1265 l 611 1104 l 476 1104 m 750 1104 l 788 1265 l 924 1265 l 885 1104 l 750 1104 m 307 306 q 307 251 307 306 q 343 158 307 196 q 463 119 379 119 q 604 171 546 119 q 726 383 682 240 q 771 665 771 526 q 735 793 771 754 q 616 832 699 832 q 482 786 533 832 q 354 565 401 713 q 307 306 307 417 m 703 67 q 447 -15 597 -15 q 222 54 297 -15 q 147 272 147 124 q 203 615 147 453 q 367 871 260 778 q 628 967 474 967 q 931 679 931 967 q 873 324 931 490 q 703 67 815 157 z "},"×":{"ha":778,"x_min":167,"x_max":771,"o":"m 264 649 l 469 440 l 676 650 l 771 554 l 561 347 l 771 142 l 675 46 l 469 256 l 263 46 l 167 142 l 376 347 l 168 553 l 264 649 z "},"Ø":{"ha":861,"x_min":83,"x_max":1006,"o":"m 147 272 q 203 615 147 453 q 367 871 260 778 q 628 967 474 967 q 796 933 728 967 l 918 1113 l 1006 1076 l 869 878 q 931 679 931 804 q 873 324 931 490 q 703 67 815 157 q 444 -15 597 -15 q 282 14 347 -15 l 161 -164 l 83 -117 l 208 68 q 147 272 147 140 m 713 810 q 605 832 676 832 q 482 786 533 832 q 354 565 401 713 q 307 286 307 417 q 313 222 307 246 l 713 810 m 367 139 q 476 119 406 119 q 604 171 546 119 q 726 383 682 240 q 771 665 771 526 q 765 724 771 701 l 367 139 z "},"Ù":{"ha":825,"x_min":149,"x_max":956,"o":"m 542 1307 l 828 1179 l 760 1063 l 468 1175 l 542 1307 m 315 313 q 303 210 303 257 q 444 119 303 119 q 584 164 540 119 q 651 308 628 208 l 800 951 l 956 951 l 807 308 q 680 62 768 139 q 444 -15 592 -15 q 149 193 149 -15 q 165 335 149 251 l 308 951 l 464 951 l 315 313 z "},"Ú":{"ha":825,"x_min":149,"x_max":956,"o":"m 315 313 q 303 210 303 257 q 444 119 303 119 q 584 164 540 119 q 651 308 628 208 l 800 951 l 956 951 l 807 308 q 680 62 768 139 q 444 -15 592 -15 q 149 193 149 -15 q 165 335 149 251 l 308 951 l 464 951 l 315 313 m 515 1075 l 503 1193 l 847 1321 l 861 1186 l 515 1075 z "},"Û":{"ha":825,"x_min":149,"x_max":956,"o":"m 315 313 q 303 210 303 257 q 444 119 303 119 q 584 164 540 119 q 651 308 628 208 l 800 951 l 956 951 l 807 308 q 680 62 768 139 q 444 -15 592 -15 q 149 193 149 -15 q 165 335 149 251 l 308 951 l 464 951 l 315 313 m 426 1090 l 663 1293 l 750 1293 l 883 1090 l 746 1090 l 693 1182 l 586 1090 l 426 1090 z "},"Ü":{"ha":825,"x_min":149,"x_max":956,"o":"m 447 1104 l 485 1265 l 621 1265 l 583 1104 l 447 1104 m 722 1104 l 758 1265 l 896 1265 l 857 1104 l 722 1104 m 315 313 q 303 210 303 257 q 444 119 303 119 q 584 164 540 119 q 651 308 628 208 l 800 951 l 956 951 l 807 308 q 680 62 768 139 q 444 -15 592 -15 q 149 193 149 -15 q 165 335 149 251 l 308 951 l 464 951 l 315 313 z "},"Ý":{"ha":693,"x_min":226,"x_max":906,"o":"m 479 1075 l 467 1193 l 811 1321 l 825 1186 l 479 1075 m 906 951 l 510 404 l 414 0 l 269 0 l 365 414 l 226 951 l 383 951 l 469 549 l 742 951 l 906 951 z "},"Þ":{"ha":754,"x_min":96,"x_max":842,"o":"m 483 303 q 682 490 636 303 q 690 556 690 524 q 675 617 690 588 q 568 667 650 665 l 400 669 l 313 303 l 483 303 m 603 818 q 803 725 743 818 q 842 582 842 664 q 831 490 842 539 q 697 241 797 332 q 453 150 597 150 q 449 150 451 150 l 276 151 l 242 0 l 96 0 l 322 963 l 469 963 l 433 818 l 603 818 z "},"ß":{"ha":768,"x_min":82,"x_max":836,"o":"m 253 728 q 365 940 289 881 q 574 999 442 999 q 772 950 707 999 q 836 819 836 901 q 806 689 836 738 q 705 610 775 640 q 610 563 635 581 q 585 520 585 544 q 601 479 585 496 q 680 424 618 463 q 765 354 742 385 q 789 258 789 324 q 710 58 789 132 q 494 -15 632 -15 q 322 10 414 -15 l 292 18 l 324 131 q 487 113 418 113 q 596 148 556 113 q 636 239 636 183 q 619 288 636 269 q 541 342 603 306 q 456 410 479 379 q 433 502 433 442 q 467 603 433 563 q 570 678 500 644 q 662 735 640 713 q 683 796 683 758 q 567 869 683 869 q 450 833 490 869 q 390 708 410 796 l 224 0 l 82 0 l 253 728 z "},"à":{"ha":717,"x_min":117,"x_max":788,"o":"m 304 -15 q 163 47 208 -15 q 117 202 117 108 q 138 379 117 296 q 200 538 160 463 q 310 662 240 614 q 468 710 381 710 q 729 679 546 710 l 788 669 l 683 219 l 646 3 l 497 -3 q 518 124 513 97 q 369 0 453 38 q 304 -15 336 -15 m 615 561 q 465 582 521 582 q 361 519 410 582 q 269 217 269 404 q 288 140 269 165 q 347 114 307 114 q 433 151 386 114 q 513 225 481 188 l 544 263 l 615 561 m 482 1054 l 767 926 l 703 817 l 410 932 l 482 1054 z "},"á":{"ha":717,"x_min":117,"x_max":814,"o":"m 304 -15 q 163 47 208 -15 q 117 202 117 108 q 138 379 117 296 q 200 538 160 463 q 310 662 240 614 q 468 710 381 710 q 729 679 546 710 l 788 669 l 683 219 l 646 3 l 497 -3 q 518 124 513 97 q 369 0 453 38 q 304 -15 336 -15 m 615 561 q 465 582 521 582 q 361 519 410 582 q 269 217 269 404 q 288 140 269 165 q 347 114 307 114 q 433 151 386 114 q 513 225 481 188 l 544 263 l 615 561 m 469 813 l 457 932 l 801 1060 l 814 925 l 469 813 z "},"â":{"ha":717,"x_min":117,"x_max":788,"o":"m 311 806 l 538 1035 l 647 1035 l 768 806 l 618 806 l 571 908 l 471 806 l 311 806 m 304 -15 q 163 47 208 -15 q 117 202 117 108 q 138 379 117 296 q 200 538 160 463 q 310 662 240 614 q 468 710 381 710 q 729 679 546 710 l 788 669 l 683 219 l 646 3 l 497 -3 q 518 124 513 97 q 369 0 453 38 q 304 -15 336 -15 m 615 561 q 465 582 521 582 q 361 519 410 582 q 269 217 269 404 q 288 140 269 165 q 347 114 307 114 q 433 151 386 114 q 513 225 481 188 l 544 263 l 615 561 z "},"ã":{"ha":717,"x_min":117,"x_max":828,"o":"m 304 -15 q 163 47 208 -15 q 117 202 117 108 q 138 379 117 296 q 200 538 160 463 q 310 662 240 614 q 468 710 381 710 q 729 679 546 710 l 788 669 l 683 219 l 646 3 l 497 -3 q 518 124 513 97 q 369 0 453 38 q 304 -15 336 -15 m 615 561 q 465 582 521 582 q 361 519 410 582 q 269 217 269 404 q 288 140 269 165 q 347 114 307 114 q 433 151 386 114 q 513 225 481 188 l 544 263 l 615 561 m 681 833 q 583 865 647 833 q 503 897 519 897 q 406 856 469 897 l 385 840 l 382 946 q 532 1029 471 1029 q 634 998 571 1029 q 711 967 697 967 q 800 1008 736 967 l 822 1022 l 828 915 q 681 833 742 833 z "},"ä":{"ha":717,"x_min":117,"x_max":799,"o":"m 350 846 l 388 1008 l 525 1008 l 486 846 l 350 846 m 625 846 l 661 1008 l 799 1008 l 760 846 l 625 846 m 304 -15 q 163 47 208 -15 q 117 202 117 108 q 138 379 117 296 q 200 538 160 463 q 310 662 240 614 q 468 710 381 710 q 729 679 546 710 l 788 669 l 683 219 l 646 3 l 497 -3 q 518 124 513 97 q 369 0 453 38 q 304 -15 336 -15 m 615 561 q 465 582 521 582 q 361 519 410 582 q 269 217 269 404 q 288 140 269 165 q 347 114 307 114 q 433 151 386 114 q 513 225 481 188 l 544 263 l 615 561 z "},"å":{"ha":717,"x_min":117,"x_max":788,"o":"m 304 -15 q 163 47 208 -15 q 117 202 117 108 q 138 379 117 296 q 200 538 160 463 q 310 662 240 614 q 468 710 381 710 q 729 679 546 710 l 788 669 l 683 219 l 646 3 l 497 -3 q 518 124 513 97 q 369 0 453 38 q 304 -15 336 -15 m 615 561 q 465 582 521 582 q 361 519 410 582 q 269 217 269 404 q 288 140 269 165 q 347 114 307 114 q 433 151 386 114 q 513 225 481 188 l 544 263 l 615 561 m 464 915 q 524 1017 478 976 q 633 1058 571 1058 q 719 1021 694 1058 q 736 969 736 996 q 732 922 736 943 q 673 812 721 853 q 561 771 625 771 q 472 811 497 771 q 457 863 457 835 q 464 915 457 890 m 611 964 q 572 950 589 964 q 550 922 554 936 q 546 899 546 908 q 555 876 546 889 q 585 863 564 863 q 625 878 607 863 q 650 919 650 899 q 611 964 650 964 z "},"æ":{"ha":1013,"x_min":78,"x_max":1072,"o":"m 622 218 q 729 122 622 122 q 931 131 829 122 l 969 135 l 943 17 q 681 -15 811 -15 q 501 56 551 -15 q 367 9 451 33 q 232 -15 282 -15 q 106 53 144 -15 q 78 138 78 97 q 85 207 78 178 q 310 413 122 382 q 511 429 410 429 q 524 501 524 468 q 464 567 524 567 q 253 553 365 567 l 213 549 l 236 683 q 503 708 404 708 q 658 632 624 708 q 863 708 736 708 q 1071 508 1071 708 q 1051 382 1071 444 l 1025 282 l 629 285 q 622 218 622 243 m 228 182 q 283 115 228 115 q 469 149 349 115 q 467 202 467 165 q 485 314 467 239 q 340 301 396 308 q 232 211 250 292 q 228 182 228 196 m 915 399 q 928 467 928 443 q 926 501 928 490 q 829 578 919 578 q 718 534 758 578 q 656 401 678 490 l 915 399 z "},"ç":{"ha":567,"x_min":121,"x_max":678,"o":"m 485 710 q 650 683 564 710 l 678 674 l 639 563 q 479 579 539 579 q 328 478 381 579 q 275 247 275 378 q 396 115 275 115 q 522 126 456 115 l 547 131 l 536 17 q 354 -15 444 -12 l 344 -53 l 353 -53 q 476 -137 476 -53 q 472 -172 476 -153 q 306 -307 440 -307 q 207 -297 261 -307 l 192 -294 l 215 -200 q 289 -203 261 -203 q 351 -162 342 -203 q 345 -133 357 -140 q 307 -126 333 -126 l 267 -126 l 293 -11 q 166 59 211 1 q 121 213 121 117 q 215 568 121 426 q 485 710 310 710 z "},"è":{"ha":653,"x_min":118,"x_max":724,"o":"m 269 213 q 269 190 269 213 q 301 140 269 167 q 381 114 333 114 q 578 131 481 114 l 614 138 l 599 24 q 343 -15 472 -15 q 118 210 118 -15 q 206 550 118 407 q 325 665 250 622 q 496 708 400 708 q 724 518 724 708 q 633 340 724 390 q 336 290 542 290 l 278 290 q 269 213 269 260 m 361 404 q 526 429 478 404 q 575 517 575 454 q 489 586 575 586 q 296 404 344 586 l 361 404 m 361 1054 l 646 926 l 582 817 l 289 932 l 361 1054 z "},"é":{"ha":653,"x_min":118,"x_max":747,"o":"m 269 213 q 269 190 269 213 q 301 140 269 167 q 381 114 333 114 q 578 131 481 114 l 614 138 l 599 24 q 343 -15 472 -15 q 118 210 118 -15 q 206 550 118 407 q 325 665 250 622 q 496 708 400 708 q 724 518 724 708 q 633 340 724 390 q 336 290 542 290 l 278 290 q 269 213 269 260 m 361 404 q 526 429 478 404 q 575 517 575 454 q 489 586 575 586 q 296 404 344 586 l 361 404 m 403 813 l 390 932 l 735 1060 l 747 925 l 403 813 z "},"ê":{"ha":653,"x_min":118,"x_max":733,"o":"m 278 806 l 503 1035 l 614 1035 l 733 806 l 585 806 l 536 908 l 438 806 l 278 806 m 269 213 q 269 190 269 213 q 301 140 269 167 q 381 114 333 114 q 578 131 481 114 l 614 138 l 599 24 q 343 -15 472 -15 q 118 210 118 -15 q 206 550 118 407 q 325 665 250 622 q 496 708 400 708 q 724 518 724 708 q 633 340 724 390 q 336 290 542 290 l 278 290 q 269 213 269 260 m 361 404 q 526 429 478 404 q 575 517 575 454 q 489 586 575 586 q 296 404 344 586 l 361 404 z "},"ë":{"ha":653,"x_min":118,"x_max":767,"o":"m 318 846 l 356 1008 l 492 1008 l 454 846 l 318 846 m 593 846 l 629 1008 l 767 1008 l 728 846 l 593 846 m 269 213 q 269 190 269 213 q 301 140 269 167 q 381 114 333 114 q 578 131 481 114 l 614 138 l 599 24 q 343 -15 472 -15 q 118 210 118 -15 q 206 550 118 407 q 325 665 250 622 q 496 708 400 708 q 724 518 724 708 q 633 340 724 390 q 336 290 542 290 l 278 290 q 269 213 269 260 m 361 404 q 526 429 478 404 q 575 517 575 454 q 489 586 575 586 q 296 404 344 586 l 361 404 z "},"ì":{"ha":315,"x_min":83,"x_max":460,"o":"m 83 0 l 243 694 l 393 694 l 233 0 l 83 0 m 175 1054 l 460 926 l 396 817 l 103 932 l 175 1054 z "},"í":{"ha":315,"x_min":83,"x_max":604,"o":"m 83 0 l 243 694 l 393 694 l 233 0 l 83 0 m 260 813 l 247 932 l 592 1060 l 604 925 l 260 813 z "},"î":{"ha":315,"x_min":83,"x_max":561,"o":"m 104 806 l 331 1035 l 440 1035 l 561 806 l 411 806 l 364 908 l 264 806 l 104 806 m 83 0 l 243 694 l 393 694 l 233 0 l 83 0 z "},"ï":{"ha":315,"x_min":83,"x_max":581,"o":"m 132 846 l 169 1008 l 306 1008 l 268 846 l 132 846 m 407 846 l 443 1008 l 581 1008 l 542 846 l 407 846 m 83 0 l 243 694 l 393 694 l 233 0 l 83 0 z "},"ð":{"ha":726,"x_min":106,"x_max":803,"o":"m 803 626 q 785 493 803 564 q 619 108 721 229 q 344 -12 518 -12 q 147 72 207 -12 q 106 207 106 131 q 114 276 106 240 q 236 513 139 422 q 471 604 333 604 q 625 575 554 604 l 649 565 q 653 608 653 588 q 533 783 653 722 l 383 683 l 331 767 l 419 825 q 313 851 351 843 l 364 983 q 581 933 497 968 l 721 1028 l 771 943 l 678 881 q 803 626 803 789 m 449 467 q 329 413 379 467 q 268 278 279 360 q 264 233 264 253 q 379 132 264 132 q 618 428 546 132 q 548 453 606 440 q 449 467 490 467 z "},"ñ":{"ha":703,"x_min":83,"x_max":793,"o":"m 565 557 q 557 568 565 557 q 513 579 549 579 q 429 544 478 579 q 340 464 381 510 l 233 0 l 83 0 l 243 694 l 388 694 l 372 603 l 399 629 q 474 683 425 656 q 569 710 524 710 q 695 659 654 710 q 736 535 736 608 q 707 346 736 463 l 628 0 l 478 0 l 556 335 q 581 493 581 451 q 565 557 581 535 m 646 833 q 549 865 613 833 q 468 897 485 897 q 372 856 435 897 l 350 840 l 347 946 q 497 1029 436 1029 q 599 998 536 1029 q 675 967 661 967 q 767 1008 701 967 l 788 1022 l 793 915 q 646 833 707 833 z "},"ò":{"ha":688,"x_min":118,"x_max":728,"o":"m 468 708 q 728 458 728 708 q 689 233 728 339 q 567 56 650 126 q 375 -15 485 -15 q 118 232 118 -15 q 160 459 118 351 q 283 638 201 567 q 468 708 365 708 m 375 113 q 522 218 465 113 q 578 460 578 324 q 550 549 578 517 q 468 581 522 581 q 324 474 379 581 q 268 231 268 367 q 375 113 268 113 m 401 1054 l 686 926 l 622 817 l 329 932 l 401 1054 z "},"ó":{"ha":688,"x_min":118,"x_max":749,"o":"m 468 708 q 728 458 728 708 q 689 233 728 339 q 567 56 650 126 q 375 -15 485 -15 q 118 232 118 -15 q 160 459 118 351 q 283 638 201 567 q 468 708 365 708 m 375 113 q 522 218 465 113 q 578 460 578 324 q 550 549 578 517 q 468 581 522 581 q 324 474 379 581 q 268 231 268 367 q 375 113 268 113 m 404 813 l 392 932 l 736 1060 l 749 925 l 404 813 z "},"ô":{"ha":688,"x_min":118,"x_max":756,"o":"m 299 806 l 525 1035 l 635 1035 l 756 806 l 606 806 l 558 908 l 458 806 l 299 806 m 468 708 q 728 458 728 708 q 689 233 728 339 q 567 56 650 126 q 375 -15 485 -15 q 118 232 118 -15 q 160 459 118 351 q 283 638 201 567 q 468 708 365 708 m 375 113 q 522 218 465 113 q 578 460 578 324 q 550 549 578 517 q 468 581 522 581 q 324 474 379 581 q 268 231 268 367 q 375 113 268 113 z "},"õ":{"ha":688,"x_min":118,"x_max":764,"o":"m 468 708 q 728 458 728 708 q 689 233 728 339 q 567 56 650 126 q 375 -15 485 -15 q 118 232 118 -15 q 160 459 118 351 q 283 638 201 567 q 468 708 365 708 m 375 113 q 522 218 465 113 q 578 460 578 324 q 550 549 578 517 q 468 581 522 581 q 324 474 379 581 q 268 231 268 367 q 375 113 268 113 m 617 833 q 519 865 583 833 q 439 897 456 897 q 342 856 406 897 l 321 840 l 318 946 q 468 1029 407 1029 q 569 998 506 1029 q 647 967 633 967 q 736 1008 672 967 l 758 1022 l 764 915 q 617 833 678 833 z "},"ö":{"ha":688,"x_min":118,"x_max":761,"o":"m 468 708 q 728 458 728 708 q 689 233 728 339 q 567 56 650 126 q 375 -15 485 -15 q 118 232 118 -15 q 160 459 118 351 q 283 638 201 567 q 468 708 365 708 m 375 113 q 522 218 465 113 q 578 460 578 324 q 550 549 578 517 q 468 581 522 581 q 324 474 379 581 q 268 231 268 367 q 375 113 268 113 m 338 846 l 375 1008 l 499 1008 l 461 846 l 338 846 m 600 846 l 636 1008 l 761 1008 l 722 846 l 600 846 z "},"÷":{"ha":778,"x_min":226,"x_max":713,"o":"m 226 335 l 226 488 l 321 488 l 321 594 l 617 594 l 617 488 l 713 488 l 713 335 l 226 335 m 393 32 l 393 196 l 543 196 l 543 32 l 393 32 z "},"ø":{"ha":688,"x_min":81,"x_max":761,"o":"m 469 711 q 589 693 532 711 l 679 840 l 761 804 l 663 650 q 729 464 729 586 q 690 235 729 342 q 569 58 651 129 q 376 -12 486 -12 q 258 4 308 -12 l 163 -151 l 81 -115 l 185 47 q 119 231 119 108 q 161 462 119 354 q 285 640 203 569 q 469 711 367 711 m 376 115 q 523 221 467 115 q 579 463 579 326 q 572 510 579 486 l 457 329 l 331 122 q 376 115 351 115 m 469 583 q 325 476 381 583 q 269 233 269 369 q 275 188 269 206 l 388 365 l 517 575 q 469 583 496 583 z "},"ù":{"ha":703,"x_min":128,"x_max":781,"o":"m 406 1054 l 690 926 l 626 817 l 333 932 l 406 1054 m 294 -15 q 169 35 210 -15 q 128 171 128 86 q 156 349 128 222 l 235 694 l 385 694 l 308 360 q 283 206 283 260 q 356 115 283 115 q 426 144 385 115 q 496 201 468 172 l 524 231 l 631 694 l 781 694 l 621 0 l 476 0 l 492 92 q 463 62 481 79 q 392 15 444 44 q 294 -15 340 -15 z "},"ú":{"ha":703,"x_min":128,"x_max":781,"o":"m 294 -15 q 169 35 210 -15 q 128 171 128 86 q 156 349 128 222 l 235 694 l 385 694 l 308 360 q 283 206 283 260 q 356 115 283 115 q 426 144 385 115 q 496 201 468 172 l 524 231 l 631 694 l 781 694 l 621 0 l 476 0 l 492 92 q 463 62 481 79 q 392 15 444 44 q 294 -15 340 -15 m 414 813 l 401 932 l 746 1060 l 758 925 l 414 813 z "},"û":{"ha":703,"x_min":128,"x_max":781,"o":"m 288 806 l 513 1035 l 624 1035 l 743 806 l 594 806 l 546 908 l 447 806 l 288 806 m 294 -15 q 169 35 210 -15 q 128 171 128 86 q 156 349 128 222 l 235 694 l 385 694 l 308 360 q 283 206 283 260 q 356 115 283 115 q 426 144 385 115 q 496 201 468 172 l 524 231 l 631 694 l 781 694 l 621 0 l 476 0 l 492 92 q 463 62 481 79 q 392 15 444 44 q 294 -15 340 -15 z "},"ü":{"ha":703,"x_min":128,"x_max":781,"o":"m 319 846 l 357 1008 l 493 1008 l 456 846 l 319 846 m 594 846 l 631 1008 l 767 1008 l 729 846 l 594 846 m 294 -15 q 169 35 210 -15 q 128 171 128 86 q 156 349 128 222 l 235 694 l 385 694 l 308 360 q 283 206 283 260 q 356 115 283 115 q 426 144 385 115 q 496 201 468 172 l 524 231 l 631 694 l 781 694 l 621 0 l 476 0 l 492 92 q 463 62 481 79 q 392 15 444 44 q 294 -15 340 -15 z "},"ý":{"ha":639,"x_min":143,"x_max":775,"o":"m 182 694 l 331 694 l 324 125 l 354 125 l 622 694 l 775 694 l 294 -299 l 143 -299 l 293 0 l 188 0 l 182 694 m 389 813 l 376 932 l 721 1060 l 733 925 l 389 813 z "},"þ":{"ha":681,"x_min":11,"x_max":732,"o":"m 375 640 q 538 708 460 708 q 661 675 615 708 q 719 592 707 642 q 731 513 731 542 q 729 449 731 483 q 711 356 728 415 q 570 69 657 153 q 335 -15 483 -15 q 254 -11 288 -15 q 221 -6 221 -7 l 153 -296 l 11 -296 l 313 981 l 454 981 l 375 640 m 582 455 q 582 476 582 455 q 562 533 582 497 q 493 569 542 569 q 426 552 465 569 q 364 519 388 535 l 340 503 l 253 131 l 363 119 q 488 178 440 119 q 567 357 535 238 q 582 455 582 413 z "},"ÿ":{"ha":639,"x_min":143,"x_max":775,"o":"m 293 846 l 331 1008 l 467 1008 l 429 846 l 293 846 m 568 846 l 604 1008 l 740 1008 l 703 846 l 568 846 m 182 694 l 331 694 l 324 125 l 354 125 l 622 694 l 775 694 l 294 -299 l 143 -299 l 293 0 l 188 0 l 182 694 z "},"Ā":{"ha":767,"x_min":25,"x_max":878,"o":"m 415 1135 l 443 1256 l 878 1256 l 849 1135 l 415 1135 m 588 0 l 588 199 l 276 199 l 181 0 l 25 0 l 474 951 l 750 951 l 742 0 l 588 0 m 564 817 l 336 335 l 592 335 l 599 817 l 564 817 z "},"ā":{"ha":717,"x_min":117,"x_max":826,"o":"m 304 -15 q 163 47 208 -15 q 117 202 117 108 q 138 379 117 296 q 200 538 160 463 q 310 662 240 614 q 468 710 381 710 q 729 679 546 710 l 788 669 l 683 219 l 646 3 l 497 -3 q 518 124 513 97 q 369 0 453 38 q 304 -15 336 -15 m 615 561 q 465 582 521 582 q 361 519 410 582 q 269 217 269 404 q 288 140 269 165 q 347 114 307 114 q 433 151 386 114 q 513 225 481 188 l 544 263 l 615 561 m 389 878 l 417 1000 l 826 1000 l 797 878 l 389 878 z "},"Ă":{"ha":767,"x_min":25,"x_max":894,"o":"m 599 1268 q 663 1214 599 1214 q 722 1233 696 1214 q 758 1285 747 1253 l 894 1285 q 638 1094 833 1094 q 501 1138 540 1094 q 461 1243 461 1181 q 464 1285 461 1263 l 600 1285 q 599 1268 599 1275 m 588 0 l 588 199 l 276 199 l 181 0 l 25 0 l 474 951 l 750 951 l 742 0 l 588 0 m 564 817 l 336 335 l 592 335 l 599 817 l 564 817 z "},"ă":{"ha":717,"x_min":117,"x_max":856,"o":"m 304 -15 q 163 47 208 -15 q 117 202 117 108 q 138 379 117 296 q 200 538 160 463 q 310 662 240 614 q 468 710 381 710 q 729 679 546 710 l 788 669 l 683 219 l 646 3 l 497 -3 q 518 124 513 97 q 369 0 453 38 q 304 -15 336 -15 m 615 561 q 465 582 521 582 q 361 519 410 582 q 269 217 269 404 q 288 140 269 165 q 347 114 307 114 q 433 151 386 114 q 513 225 481 188 l 544 263 l 615 561 m 543 1026 q 542 1001 542 1017 q 556 965 542 985 q 613 946 569 946 q 721 1026 694 946 l 856 1026 q 575 821 789 821 q 435 875 476 821 q 404 976 404 914 q 408 1026 404 1000 l 543 1026 z "},"Ą":{"ha":767,"x_min":25,"x_max":750,"o":"m 742 0 l 733 0 q 663 -67 699 -25 q 628 -134 628 -110 q 653 -158 628 -158 l 711 -153 l 696 -278 q 574 -292 625 -292 q 494 -266 522 -292 q 465 -193 465 -240 q 505 -93 465 -146 q 594 0 544 -40 l 588 0 l 588 199 l 276 199 l 181 0 l 25 0 l 474 951 l 750 951 l 742 6 l 742 0 m 564 817 l 336 335 l 592 335 l 599 817 l 564 817 z "},"ą":{"ha":717,"x_min":117,"x_max":788,"o":"m 593 -278 q 471 -292 522 -292 q 391 -266 419 -292 q 363 -192 363 -240 q 404 -89 363 -143 q 497 6 446 -35 q 518 124 497 19 q 369 0 453 38 q 304 -15 336 -15 q 163 47 208 -15 q 117 202 117 108 q 138 379 117 296 q 200 538 160 463 q 310 662 240 614 q 468 710 381 710 q 729 679 546 710 l 788 669 l 683 219 l 646 3 l 633 1 q 563 -65 600 -21 q 525 -133 525 -108 q 550 -158 525 -158 l 608 -153 l 593 -278 m 615 561 q 465 582 521 582 q 361 519 410 582 q 269 217 269 404 q 288 140 269 165 q 347 114 307 114 q 433 151 386 114 q 513 225 481 188 l 544 263 l 615 561 z "},"Ć":{"ha":692,"x_min":146,"x_max":894,"o":"m 424 -15 q 146 258 146 -15 q 215 635 146 460 q 308 802 253 729 q 446 921 363 875 q 631 967 529 967 q 831 939 724 967 l 865 929 l 829 813 q 631 832 735 832 q 451 746 526 832 q 341 533 376 660 q 306 269 306 407 q 443 119 306 119 q 636 136 531 119 l 668 140 l 657 18 q 424 -15 531 -15 m 549 1075 l 536 1193 l 881 1321 l 894 1186 l 549 1075 z "},"ć":{"ha":565,"x_min":119,"x_max":733,"o":"m 483 710 q 647 683 563 710 l 676 674 l 638 563 q 478 579 538 579 q 326 478 379 579 q 274 247 274 378 q 394 115 274 115 q 521 126 454 115 l 546 131 l 535 17 q 337 -15 436 -15 q 178 44 238 -15 q 119 213 119 104 q 214 568 119 426 q 483 710 308 710 m 389 813 l 376 932 l 721 1060 l 733 925 l 389 813 z "},"Ĉ":{"ha":692,"x_min":146,"x_max":889,"o":"m 424 -15 q 146 258 146 -15 q 215 635 146 460 q 308 802 253 729 q 446 921 363 875 q 631 967 529 967 q 831 939 724 967 l 865 929 l 829 813 q 631 832 735 832 q 451 746 526 832 q 341 533 376 660 q 306 269 306 407 q 443 119 306 119 q 636 136 531 119 l 668 140 l 657 18 q 424 -15 531 -15 m 432 1090 l 668 1293 l 756 1293 l 889 1090 l 751 1090 l 699 1182 l 592 1090 l 432 1090 z "},"ĉ":{"ha":565,"x_min":119,"x_max":722,"o":"m 483 710 q 647 683 563 710 l 676 674 l 638 563 q 478 579 538 579 q 326 478 379 579 q 274 247 274 378 q 394 115 274 115 q 521 126 454 115 l 546 131 l 535 17 q 337 -15 436 -15 q 178 44 238 -15 q 119 213 119 104 q 214 568 119 426 q 483 710 308 710 m 290 806 l 515 1035 l 603 1035 l 722 806 l 585 806 l 536 908 l 438 806 l 290 806 z "},"Ċ":{"ha":692,"x_min":146,"x_max":865,"o":"m 424 -15 q 146 258 146 -15 q 215 635 146 460 q 308 802 253 729 q 446 921 363 875 q 631 967 529 967 q 831 939 724 967 l 865 929 l 829 813 q 631 832 735 832 q 451 746 526 832 q 341 533 376 660 q 306 269 306 407 q 443 119 306 119 q 636 136 531 119 l 668 140 l 657 18 q 424 -15 531 -15 m 589 1083 l 626 1247 l 758 1247 l 719 1083 l 589 1083 z "},"ċ":{"ha":565,"x_min":119,"x_max":676,"o":"m 483 710 q 647 683 563 710 l 676 674 l 638 563 q 478 579 538 579 q 326 478 379 579 q 274 247 274 378 q 394 115 274 115 q 521 126 454 115 l 546 131 l 535 17 q 337 -15 436 -15 q 178 44 238 -15 q 119 213 119 104 q 214 568 119 426 q 483 710 308 710 m 438 822 l 475 983 l 604 983 l 567 822 l 438 822 z "},"Č":{"ha":692,"x_min":146,"x_max":933,"o":"m 424 -15 q 146 258 146 -15 q 215 635 146 460 q 308 802 253 729 q 446 921 363 875 q 631 967 529 967 q 831 939 724 967 l 865 929 l 829 813 q 631 832 735 832 q 451 746 526 832 q 341 533 376 660 q 306 269 306 407 q 443 119 306 119 q 636 136 531 119 l 668 140 l 657 18 q 424 -15 531 -15 m 933 1289 l 714 1088 l 613 1088 l 481 1289 l 629 1289 l 688 1194 l 785 1289 l 933 1289 z "},"č":{"ha":565,"x_min":119,"x_max":788,"o":"m 561 806 l 468 806 l 353 1035 l 490 1035 l 544 929 l 640 1035 l 788 1035 l 561 806 m 483 710 q 647 683 563 710 l 676 674 l 638 563 q 478 579 538 579 q 326 478 379 579 q 274 247 274 378 q 394 115 274 115 q 521 126 454 115 l 546 131 l 535 17 q 337 -15 436 -15 q 178 44 238 -15 q 119 213 119 104 q 214 568 119 426 q 483 710 308 710 z "},"Ď":{"ha":842,"x_min":97,"x_max":911,"o":"m 435 0 l 97 0 l 318 951 l 619 951 q 911 665 911 951 q 797 219 911 419 q 647 60 742 121 q 435 0 553 0 m 751 666 q 751 706 751 666 q 712 781 751 746 q 589 817 672 817 l 440 817 l 285 135 l 450 135 q 586 190 525 135 q 681 328 647 244 q 733 499 715 411 q 751 666 751 586 m 886 1289 l 667 1088 l 565 1088 l 433 1289 l 582 1289 l 640 1194 l 738 1289 l 886 1289 z "},"ď":{"ha":833,"x_min":117,"x_max":1067,"o":"m 1067 951 l 986 614 l 849 614 l 931 951 l 1067 951 m 306 -15 q 165 43 213 -15 q 117 217 117 101 q 155 442 117 332 q 275 631 193 553 q 465 708 357 708 q 611 689 519 708 l 640 682 l 710 983 l 861 983 l 633 0 l 488 0 l 506 94 q 478 64 496 82 q 407 15 460 46 q 306 -15 354 -15 m 613 561 q 467 581 528 581 q 359 518 406 581 q 291 373 313 456 q 269 213 269 290 q 354 113 269 113 q 431 144 385 113 q 508 208 478 176 l 539 240 l 613 561 z "},"Đ":{"ha":850,"x_min":106,"x_max":919,"o":"m 443 0 l 106 0 l 199 403 l 117 403 l 149 556 l 235 556 l 326 951 l 628 951 q 919 665 919 951 q 806 219 919 419 q 656 60 750 121 q 443 0 561 0 m 690 328 q 707 369 690 328 q 742 499 724 411 q 760 666 760 586 q 720 781 760 746 q 597 817 681 817 l 449 817 l 389 556 l 560 556 l 526 403 l 354 403 l 293 135 l 458 135 q 594 190 533 135 q 690 328 656 244 z "},"đ":{"ha":717,"x_min":117,"x_max":922,"o":"m 306 -15 q 165 43 213 -15 q 117 217 117 101 q 155 442 117 332 q 275 631 193 553 q 465 708 357 708 q 611 689 519 708 l 640 682 l 664 785 l 482 785 l 513 921 l 694 921 l 710 983 l 861 983 l 846 921 l 922 921 l 890 785 l 815 785 l 633 0 l 488 0 l 506 94 q 478 64 496 82 q 407 15 460 46 q 306 -15 354 -15 m 613 561 q 467 581 528 581 q 359 518 406 581 q 291 373 313 456 q 269 213 269 290 q 354 113 269 113 q 431 144 385 113 q 508 208 478 176 l 539 240 l 613 561 z "},"Ē":{"ha":694,"x_min":97,"x_max":864,"o":"m 401 1131 l 429 1251 l 864 1251 l 835 1131 l 401 1131 m 97 0 l 317 951 l 863 951 l 831 817 l 440 817 l 379 547 l 693 547 l 661 411 l 349 411 l 285 135 l 676 135 l 644 0 l 97 0 z "},"ē":{"ha":653,"x_min":118,"x_max":763,"o":"m 269 213 q 269 190 269 213 q 301 140 269 167 q 381 114 333 114 q 578 131 481 114 l 614 138 l 599 24 q 343 -15 472 -15 q 118 210 118 -15 q 206 550 118 407 q 325 665 250 622 q 496 708 400 708 q 724 518 724 708 q 633 340 724 390 q 336 290 542 290 l 278 290 q 269 213 269 260 m 361 404 q 526 429 478 404 q 575 517 575 454 q 489 586 575 586 q 296 404 344 586 l 361 404 m 325 878 l 353 1000 l 763 1000 l 733 878 l 325 878 z "},"Ĕ":{"ha":694,"x_min":97,"x_max":864,"o":"m 568 1268 q 632 1214 568 1214 q 691 1233 665 1214 q 728 1285 717 1253 l 864 1285 q 607 1094 803 1094 q 470 1138 510 1094 q 431 1243 431 1181 q 433 1285 431 1263 l 569 1285 q 568 1268 568 1275 m 97 0 l 317 951 l 863 951 l 831 817 l 440 817 l 379 547 l 693 547 l 661 411 l 349 411 l 285 135 l 676 135 l 644 0 l 97 0 z "},"ĕ":{"ha":653,"x_min":118,"x_max":803,"o":"m 269 213 q 269 190 269 213 q 301 140 269 167 q 381 114 333 114 q 578 131 481 114 l 614 138 l 599 24 q 343 -15 472 -15 q 118 210 118 -15 q 206 550 118 407 q 325 665 250 622 q 496 708 400 708 q 724 518 724 708 q 633 340 724 390 q 336 290 542 290 l 278 290 q 269 213 269 260 m 361 404 q 526 429 478 404 q 575 517 575 454 q 489 586 575 586 q 296 404 344 586 l 361 404 m 490 1026 q 489 1001 489 1017 q 503 965 489 985 q 560 946 517 946 q 668 1026 642 946 l 803 1026 q 522 821 736 821 q 382 875 424 821 q 351 976 351 914 q 356 1026 351 1000 l 490 1026 z "},"Ė":{"ha":694,"x_min":97,"x_max":863,"o":"m 540 1106 l 578 1269 l 710 1269 l 671 1106 l 540 1106 m 97 0 l 317 951 l 863 951 l 831 817 l 440 817 l 379 547 l 693 547 l 661 411 l 349 411 l 285 135 l 676 135 l 644 0 l 97 0 z "},"ė":{"ha":653,"x_min":118,"x_max":724,"o":"m 269 213 q 269 190 269 213 q 301 140 269 167 q 381 114 333 114 q 578 131 481 114 l 614 138 l 599 24 q 343 -15 472 -15 q 118 210 118 -15 q 206 550 118 407 q 325 665 250 622 q 496 708 400 708 q 724 518 724 708 q 633 340 724 390 q 336 290 542 290 l 278 290 q 269 213 269 260 m 361 404 q 526 429 478 404 q 575 517 575 454 q 489 586 575 586 q 296 404 344 586 l 361 404 m 444 822 l 482 983 l 611 983 l 574 822 l 444 822 z "},"Ę":{"ha":694,"x_min":97,"x_max":863,"o":"m 624 0 q 553 -67 589 -25 q 518 -134 518 -110 q 543 -158 518 -158 l 601 -153 l 586 -278 q 464 -292 515 -292 q 384 -266 413 -292 q 356 -193 356 -240 q 395 -93 356 -146 q 485 0 435 -40 l 97 0 l 317 951 l 863 951 l 831 817 l 440 817 l 379 547 l 693 547 l 661 411 l 349 411 l 285 135 l 676 135 l 644 0 l 624 0 z "},"ę":{"ha":653,"x_min":118,"x_max":724,"o":"m 551 -250 q 429 -264 481 -264 q 349 -238 378 -264 q 321 -165 321 -212 q 406 -12 321 -97 q 343 -15 364 -15 q 118 210 118 -15 q 206 550 118 407 q 325 665 250 622 q 496 708 400 708 q 724 518 724 708 q 633 340 724 390 q 336 290 542 290 l 278 290 q 269 213 269 260 q 301 140 269 167 q 381 114 333 114 q 578 131 481 114 l 614 138 l 599 24 q 576 17 589 21 q 513 -48 542 -11 q 483 -108 483 -85 q 508 -131 483 -131 l 567 -125 l 551 -250 m 361 404 q 526 429 478 404 q 575 517 575 454 q 489 586 575 586 q 296 404 344 586 l 361 404 z "},"Ě":{"ha":694,"x_min":97,"x_max":876,"o":"m 876 1307 l 657 1106 l 556 1106 l 424 1307 l 572 1307 l 631 1213 l 728 1307 l 876 1307 m 97 0 l 317 951 l 863 951 l 831 817 l 440 817 l 379 547 l 693 547 l 661 411 l 349 411 l 285 135 l 676 135 l 644 0 l 97 0 z "},"ě":{"ha":653,"x_min":118,"x_max":789,"o":"m 269 213 q 269 190 269 213 q 301 140 269 167 q 381 114 333 114 q 578 131 481 114 l 614 138 l 599 24 q 343 -15 472 -15 q 118 210 118 -15 q 206 550 118 407 q 325 665 250 622 q 496 708 400 708 q 724 518 724 708 q 633 340 724 390 q 336 290 542 290 l 278 290 q 269 213 269 260 m 361 404 q 526 429 478 404 q 575 517 575 454 q 489 586 575 586 q 296 404 344 586 l 361 404 m 563 806 l 469 806 l 354 1035 l 492 1035 l 546 929 l 642 1035 l 789 1035 l 563 806 z "},"Ĝ":{"ha":792,"x_min":149,"x_max":932,"o":"m 440 1063 l 665 1292 l 776 1292 l 896 1063 l 747 1063 l 699 1165 l 600 1063 l 440 1063 m 451 -15 q 149 271 149 -15 q 225 667 149 492 q 464 928 310 856 q 631 967 549 967 q 894 929 779 967 l 932 917 l 896 804 q 633 832 757 832 q 485 778 550 832 q 383 638 421 724 q 308 269 308 465 q 469 119 308 119 q 575 131 525 119 l 592 133 l 650 385 l 538 385 l 568 514 l 835 514 l 719 21 q 451 -15 614 -15 z "},"ĝ":{"ha":663,"x_min":18,"x_max":794,"o":"m 636 -56 q 544 -247 636 -172 q 308 -322 453 -322 q 18 -136 18 -322 q 67 -22 18 -68 q 193 63 115 24 q 168 123 168 88 q 188 192 168 158 q 228 244 208 225 l 249 264 q 153 432 153 315 q 231 629 153 549 q 438 710 308 710 q 567 692 493 710 l 590 686 l 794 694 l 765 571 l 667 571 q 679 489 679 539 q 599 304 679 383 q 388 225 518 225 l 335 232 q 304 168 304 192 q 330 135 304 144 q 443 115 356 126 q 583 65 531 103 q 636 -56 636 26 m 261 18 q 190 -35 222 -1 q 157 -106 157 -68 q 191 -169 157 -143 q 301 -196 225 -196 q 435 -165 378 -196 q 493 -72 493 -135 q 468 -26 493 -39 q 365 -1 443 -12 q 261 18 286 11 m 399 349 q 501 393 463 349 q 540 492 540 438 q 431 586 540 586 q 331 542 369 586 q 293 442 293 499 q 399 349 293 349 m 269 806 l 494 1035 l 582 1035 l 701 806 l 564 806 l 515 908 l 417 806 l 269 806 z "},"Ğ":{"ha":792,"x_min":149,"x_max":963,"o":"m 708 1204 q 817 1285 790 1204 l 963 1285 q 857 1126 932 1185 q 683 1067 782 1067 q 538 1111 583 1067 q 489 1240 489 1158 q 492 1285 489 1261 l 639 1285 q 638 1263 638 1281 q 708 1204 640 1204 m 451 -15 q 149 271 149 -15 q 225 667 149 492 q 464 928 310 856 q 631 967 549 967 q 894 929 779 967 l 932 917 l 896 804 q 633 832 757 832 q 485 778 550 832 q 383 638 421 724 q 308 269 308 465 q 469 119 308 119 q 575 131 525 119 l 592 133 l 650 385 l 538 385 l 568 514 l 835 514 l 719 21 q 451 -15 614 -15 z "},"ğ":{"ha":663,"x_min":18,"x_max":794,"o":"m 636 -56 q 544 -247 636 -172 q 308 -322 453 -322 q 18 -136 18 -322 q 67 -22 18 -68 q 193 63 115 24 q 168 123 168 88 q 188 192 168 158 q 228 244 208 225 l 249 264 q 153 432 153 315 q 231 629 153 549 q 438 710 308 710 q 567 692 493 710 l 590 686 l 794 694 l 765 571 l 667 571 q 679 489 679 539 q 599 304 679 383 q 388 225 518 225 l 335 232 q 304 168 304 192 q 330 135 304 144 q 443 115 356 126 q 583 65 531 103 q 636 -56 636 26 m 261 18 q 190 -35 222 -1 q 157 -106 157 -68 q 191 -169 157 -143 q 301 -196 225 -196 q 435 -165 378 -196 q 493 -72 493 -135 q 468 -26 493 -39 q 365 -1 443 -12 q 261 18 286 11 m 399 349 q 501 393 463 349 q 540 492 540 438 q 431 586 540 586 q 331 542 369 586 q 293 442 293 499 q 399 349 293 349 m 471 1026 q 469 1001 469 1017 q 483 965 469 985 q 540 946 497 946 q 649 1026 622 946 l 783 1026 q 503 821 717 821 q 363 875 404 821 q 332 976 332 914 q 336 1026 332 1000 l 471 1026 z "},"Ġ":{"ha":792,"x_min":149,"x_max":932,"o":"m 610 1056 l 647 1218 l 789 1218 l 751 1056 l 610 1056 m 451 -15 q 149 271 149 -15 q 225 667 149 492 q 464 928 310 856 q 631 967 549 967 q 894 929 779 967 l 932 917 l 896 804 q 633 832 757 832 q 485 778 550 832 q 383 638 421 724 q 308 269 308 465 q 469 119 308 119 q 575 131 525 119 l 592 133 l 650 385 l 538 385 l 568 514 l 835 514 l 719 21 q 451 -15 614 -15 z "},"ġ":{"ha":663,"x_min":18,"x_max":794,"o":"m 636 -56 q 544 -247 636 -172 q 308 -322 453 -322 q 18 -136 18 -322 q 67 -22 18 -68 q 193 63 115 24 q 168 123 168 88 q 188 192 168 158 q 228 244 208 225 l 249 264 q 153 432 153 315 q 231 629 153 549 q 438 710 308 710 q 567 692 493 710 l 590 686 l 794 694 l 765 571 l 667 571 q 679 489 679 539 q 599 304 679 383 q 388 225 518 225 l 335 232 q 304 168 304 192 q 330 135 304 144 q 443 115 356 126 q 583 65 531 103 q 636 -56 636 26 m 261 18 q 190 -35 222 -1 q 157 -106 157 -68 q 191 -169 157 -143 q 301 -196 225 -196 q 435 -165 378 -196 q 493 -72 493 -135 q 468 -26 493 -39 q 365 -1 443 -12 q 261 18 286 11 m 399 349 q 501 393 463 349 q 540 492 540 438 q 431 586 540 586 q 331 542 369 586 q 293 442 293 499 q 399 349 293 349 m 426 822 l 464 983 l 593 983 l 556 822 l 426 822 z "},"Ģ":{"ha":792,"x_min":149,"x_max":932,"o":"m 451 -15 q 149 271 149 -15 q 225 667 149 492 q 464 928 310 856 q 631 967 549 967 q 894 929 779 967 l 932 917 l 896 804 q 633 832 757 832 q 485 778 550 832 q 383 638 421 724 q 308 269 308 465 q 469 119 308 119 q 575 131 525 119 l 592 133 l 650 385 l 538 385 l 568 514 l 835 514 l 719 21 q 451 -15 614 -15 m 339 -100 l 476 -100 l 335 -414 l 210 -414 l 339 -100 z "},"ģ":{"ha":663,"x_min":18,"x_max":794,"o":"m 556 1118 l 682 1118 l 553 807 l 414 807 l 556 1118 m 636 -56 q 544 -247 636 -172 q 308 -322 453 -322 q 18 -136 18 -322 q 67 -22 18 -68 q 193 63 115 24 q 168 123 168 88 q 188 192 168 158 q 228 244 208 225 l 249 264 q 153 432 153 315 q 231 629 153 549 q 438 710 308 710 q 567 692 493 710 l 590 686 l 794 694 l 765 571 l 667 571 q 679 489 679 539 q 599 304 679 383 q 388 225 518 225 l 335 232 q 304 168 304 192 q 330 135 304 144 q 443 115 356 126 q 583 65 531 103 q 636 -56 636 26 m 261 18 q 190 -35 222 -1 q 157 -106 157 -68 q 191 -169 157 -143 q 301 -196 225 -196 q 435 -165 378 -196 q 493 -72 493 -135 q 468 -26 493 -39 q 365 -1 443 -12 q 261 18 286 11 m 399 349 q 501 393 463 349 q 540 492 540 438 q 431 586 540 586 q 331 542 369 586 q 293 442 293 499 q 399 349 293 349 z "},"Ĥ":{"ha":864,"x_min":97,"x_max":985,"o":"m 611 0 l 706 417 l 349 417 l 253 0 l 97 0 l 318 951 l 472 951 l 381 551 l 738 551 l 831 951 l 985 951 l 765 0 l 611 0 m 444 1090 l 681 1293 l 768 1293 l 901 1090 l 764 1090 l 711 1182 l 604 1090 l 444 1090 z "},"ĥ":{"ha":704,"x_min":83,"x_max":847,"o":"m 569 710 q 695 659 654 710 q 736 537 736 608 q 707 344 736 465 l 628 0 l 478 0 l 556 335 q 581 485 581 435 q 565 557 581 535 q 515 579 549 579 q 438 551 481 579 q 368 493 396 522 l 340 464 l 233 0 l 83 0 l 310 983 l 460 983 l 374 604 q 403 634 385 617 q 472 681 421 651 q 569 710 524 710 m 390 1049 l 626 1251 l 714 1251 l 847 1049 l 710 1049 l 657 1140 l 550 1049 l 390 1049 z "},"Ħ":{"ha":878,"x_min":106,"x_max":1058,"o":"m 164 681 l 164 685 l 194 817 l 293 817 l 325 951 l 474 951 l 442 817 l 814 817 l 844 951 l 993 951 l 961 817 l 1058 817 l 1024 681 l 931 681 l 774 0 l 625 0 l 719 407 l 347 407 l 254 0 l 106 0 l 263 681 l 164 681 m 381 551 l 753 551 l 782 681 l 410 681 l 381 551 z "},"ħ":{"ha":704,"x_min":83,"x_max":736,"o":"m 569 710 q 695 659 654 710 q 736 537 736 608 q 707 344 736 465 l 628 0 l 478 0 l 556 335 q 581 485 581 435 q 565 557 581 535 q 515 579 549 579 q 438 551 481 579 q 368 493 396 522 l 340 464 l 233 0 l 83 0 l 260 765 l 186 765 l 215 896 l 289 896 l 310 983 l 460 983 l 440 896 l 625 896 l 593 765 l 410 765 l 374 604 q 403 634 385 617 q 472 681 421 651 q 569 710 524 710 z "},"Ĩ":{"ha":350,"x_min":97,"x_max":682,"o":"m 532 1086 q 424 1119 497 1086 q 333 1153 351 1153 q 233 1108 303 1153 l 211 1093 l 207 1199 q 361 1286 300 1286 q 476 1253 404 1286 q 561 1219 547 1219 q 605 1233 575 1219 q 657 1261 635 1247 l 679 1276 l 682 1171 q 532 1086 594 1086 m 97 0 l 318 951 l 472 951 l 253 0 l 97 0 z "},"ĩ":{"ha":315,"x_min":83,"x_max":575,"o":"m 83 0 l 243 694 l 393 694 l 233 0 l 83 0 m 428 833 q 331 865 394 833 q 250 897 267 897 q 153 856 217 897 l 132 840 l 129 946 q 279 1029 218 1029 q 381 998 317 1029 q 458 967 444 967 q 547 1008 483 967 l 569 1022 l 575 915 q 428 833 489 833 z "},"Ī":{"ha":350,"x_min":97,"x_max":672,"o":"m 210 1146 l 238 1267 l 672 1267 l 643 1146 l 210 1146 m 97 0 l 318 951 l 472 951 l 253 0 l 97 0 z "},"ī":{"ha":315,"x_min":83,"x_max":579,"o":"m 83 0 l 243 694 l 393 694 l 233 0 l 83 0 m 142 878 l 169 1000 l 579 1000 l 550 878 l 142 878 z "},"Ĭ":{"ha":350,"x_min":97,"x_max":686,"o":"m 390 1268 q 454 1214 390 1214 q 513 1233 488 1214 q 550 1285 539 1253 l 686 1285 q 429 1094 625 1094 q 292 1138 332 1094 q 253 1243 253 1181 q 256 1285 253 1263 l 392 1285 q 390 1268 390 1275 m 97 0 l 318 951 l 472 951 l 253 0 l 97 0 z "},"ĭ":{"ha":315,"x_min":83,"x_max":610,"o":"m 83 0 l 243 694 l 393 694 l 233 0 l 83 0 m 297 1026 q 296 1001 296 1017 q 310 965 296 985 q 367 946 324 946 q 475 1026 449 946 l 610 1026 q 329 821 543 821 q 189 875 231 821 q 158 976 158 914 q 163 1026 158 1000 l 297 1026 z "},"Į":{"ha":350,"x_min":-29,"x_max":472,"o":"m 253 0 q 174 -63 215 -19 q 133 -133 133 -107 q 158 -158 133 -158 l 217 -153 l 203 -278 q 79 -292 131 -292 q -1 -266 28 -292 q -29 -193 -29 -240 q 10 -93 -29 -146 q 100 0 50 -40 l 97 0 l 318 951 l 472 951 l 253 0 z "},"į":{"ha":315,"x_min":-50,"x_max":456,"o":"m 181 -278 q 57 -292 108 -292 q -22 -266 6 -292 q -50 -193 -50 -240 q 85 4 -50 -106 l 243 694 l 393 694 l 233 0 q 151 -66 192 -25 q 111 -133 111 -107 q 136 -158 111 -158 l 194 -153 l 181 -278 m 265 797 l 304 960 l 456 960 l 418 797 l 265 797 z "},"İ":{"ha":350,"x_min":97,"x_max":529,"o":"m 360 1106 l 397 1269 l 529 1269 l 490 1106 l 360 1106 m 97 0 l 318 951 l 472 951 l 253 0 l 97 0 z "},"ı":{"ha":317,"x_min":83,"x_max":393,"o":"m 83 0 l 243 694 l 393 694 l 233 0 l 83 0 z "},"Ĵ":{"ha":382,"x_min":8,"x_max":675,"o":"m 508 951 l 329 178 q 235 -51 289 -4 q 8 -97 181 -97 l 35 39 q 130 63 106 40 q 175 181 154 86 l 354 951 l 508 951 m 218 1090 l 454 1293 l 542 1293 l 675 1090 l 538 1090 l 485 1182 l 378 1090 l 218 1090 z "},"ĵ":{"ha":315,"x_min":-108,"x_max":549,"o":"m 83 0 l 243 694 l 393 694 l 233 0 q 185 -153 208 -106 q 128 -222 161 -200 q -60 -322 56 -272 l -108 -201 q 35 -112 7 -143 q 83 0 64 -82 m 117 806 l 342 1035 l 429 1035 l 549 806 l 411 806 l 363 908 l 264 806 l 117 806 z "},"Ķ":{"ha":739,"x_min":97,"x_max":936,"o":"m 308 -100 l 446 -100 l 304 -414 l 179 -414 l 308 -100 m 557 0 l 463 400 l 343 392 l 253 0 l 97 0 l 318 951 l 472 951 l 374 528 l 479 536 l 765 951 l 936 951 l 603 474 l 719 0 l 557 0 z "},"ķ":{"ha":636,"x_min":83,"x_max":774,"o":"m 113 -414 l 242 -100 l 379 -100 l 238 -414 l 113 -414 m 233 0 l 83 0 l 310 983 l 460 983 l 331 425 l 396 432 l 606 693 l 774 693 l 508 365 l 618 0 l 463 0 l 374 307 l 303 301 l 233 0 z "},"Ĺ":{"ha":593,"x_min":97,"x_max":772,"o":"m 426 1075 l 414 1193 l 758 1321 l 772 1186 l 426 1075 m 586 0 l 97 0 l 318 951 l 472 951 l 285 135 l 617 135 l 586 0 z "},"ĺ":{"ha":321,"x_min":85,"x_max":681,"o":"m 85 0 l 313 983 l 463 983 l 236 0 l 85 0 m 335 1075 l 322 1193 l 667 1321 l 681 1186 l 335 1075 z "},"Ļ":{"ha":593,"x_min":97,"x_max":617,"o":"m 256 -100 l 393 -100 l 251 -414 l 126 -414 l 256 -100 m 586 0 l 97 0 l 318 951 l 472 951 l 285 135 l 617 135 l 586 0 z "},"ļ":{"ha":321,"x_min":-58,"x_max":463,"o":"m 71 -100 l 208 -100 l 67 -414 l -58 -414 l 71 -100 m 85 0 l 313 983 l 463 983 l 236 0 l 85 0 z "},"Ľ":{"ha":638,"x_min":97,"x_max":797,"o":"m 797 951 l 718 614 l 579 614 l 661 951 l 797 951 m 586 0 l 97 0 l 318 951 l 472 951 l 285 135 l 617 135 l 586 0 z "},"ľ":{"ha":435,"x_min":85,"x_max":669,"o":"m 669 951 l 589 614 l 451 614 l 532 951 l 669 951 m 85 0 l 313 983 l 463 983 l 236 0 l 85 0 z "},"Ł":{"ha":594,"x_min":75,"x_max":619,"o":"m 589 0 l 100 0 l 175 325 l 122 292 l 121 292 l 75 397 l 211 482 l 321 951 l 475 951 l 393 596 l 557 699 l 604 593 l 357 439 l 288 135 l 619 135 l 589 0 z "},"ł":{"ha":393,"x_min":79,"x_max":528,"o":"m 117 0 l 194 340 l 128 299 l 79 404 l 232 499 l 344 983 l 494 983 l 408 608 l 481 653 l 528 549 l 372 451 l 268 0 l 117 0 z "},"Ń":{"ha":892,"x_min":97,"x_max":1014,"o":"m 549 1075 l 536 1193 l 881 1321 l 894 1186 l 549 1075 m 97 0 l 318 951 l 572 951 l 664 163 l 685 163 l 864 951 l 1014 951 l 794 0 l 551 0 l 451 799 l 431 799 l 244 0 l 97 0 z "},"ń":{"ha":703,"x_min":83,"x_max":751,"o":"m 565 557 q 557 568 565 557 q 513 579 549 579 q 429 544 478 579 q 340 464 381 510 l 233 0 l 83 0 l 243 694 l 388 694 l 372 603 l 399 629 q 474 683 425 656 q 569 710 524 710 q 695 659 654 710 q 736 535 736 608 q 707 346 736 463 l 628 0 l 478 0 l 556 335 q 581 493 581 451 q 565 557 581 535 m 407 813 l 394 932 l 739 1060 l 751 925 l 407 813 z "},"Ņ":{"ha":892,"x_min":97,"x_max":1014,"o":"m 390 -100 l 528 -100 l 386 -414 l 261 -414 l 390 -100 m 97 0 l 318 951 l 572 951 l 664 163 l 685 163 l 864 951 l 1014 951 l 794 0 l 551 0 l 451 799 l 431 799 l 244 0 l 97 0 z "},"ņ":{"ha":703,"x_min":83,"x_max":736,"o":"m 569 710 q 695 659 654 710 q 736 535 736 608 q 707 346 736 463 l 628 0 l 478 0 l 556 335 q 581 493 581 451 q 565 557 581 535 q 513 579 549 579 q 436 551 478 579 q 367 493 394 522 l 340 464 l 233 0 l 83 0 l 243 694 l 388 694 l 372 603 q 401 633 383 615 q 472 680 419 650 q 569 710 524 710 m 151 -414 l 281 -100 l 418 -100 l 276 -414 l 151 -414 z "},"Ň":{"ha":892,"x_min":97,"x_max":1014,"o":"m 944 1286 l 725 1085 l 624 1085 l 492 1286 l 640 1286 l 699 1192 l 796 1286 l 944 1286 m 97 0 l 318 951 l 572 951 l 664 163 l 685 163 l 864 951 l 1014 951 l 794 0 l 551 0 l 451 799 l 431 799 l 244 0 l 97 0 z "},"ň":{"ha":703,"x_min":83,"x_max":807,"o":"m 569 710 q 695 659 654 710 q 736 535 736 608 q 707 346 736 463 l 628 0 l 478 0 l 556 335 q 581 493 581 451 q 565 557 581 535 q 513 579 549 579 q 436 551 478 579 q 367 493 394 522 l 340 464 l 233 0 l 83 0 l 243 694 l 388 694 l 372 603 q 401 633 383 615 q 472 680 419 650 q 569 710 524 710 m 581 806 l 488 806 l 372 1035 l 510 1035 l 564 929 l 660 1035 l 807 1035 l 581 806 z "},"Ŋ":{"ha":892,"x_min":97,"x_max":1014,"o":"m 793 0 l 793 -4 q 753 -149 771 -101 q 700 -230 736 -197 q 617 -270 664 -262 q 479 -278 569 -278 l 506 -142 q 601 -117 576 -140 q 646 0 625 -94 l 551 0 l 451 799 l 431 799 l 244 0 l 97 0 l 318 951 l 572 951 l 664 163 l 683 163 l 864 951 l 1014 951 l 794 0 l 793 0 z "},"ŋ":{"ha":692,"x_min":79,"x_max":725,"o":"m 576 483 q 500 568 576 568 q 432 549 472 568 q 364 510 392 529 l 338 490 l 222 0 l 79 0 l 243 693 l 386 693 l 367 617 q 560 708 476 708 q 725 535 725 708 q 700 361 725 465 l 615 6 q 522 -198 582 -129 q 313 -335 463 -267 l 276 -206 q 421 -112 386 -149 q 475 10 456 -75 l 558 361 q 576 483 576 433 z "},"Ō":{"ha":861,"x_min":147,"x_max":931,"o":"m 307 306 q 307 251 307 306 q 343 158 307 196 q 463 119 379 119 q 604 171 546 119 q 726 383 682 240 q 771 665 771 526 q 735 793 771 754 q 616 832 699 832 q 482 786 533 832 q 354 565 401 713 q 307 306 307 417 m 703 67 q 447 -15 597 -15 q 222 54 297 -15 q 147 272 147 124 q 203 615 147 453 q 367 871 260 778 q 628 967 474 967 q 931 679 931 967 q 873 324 931 490 q 703 67 815 157 m 461 1131 l 489 1251 l 924 1251 l 894 1131 l 461 1131 z "},"ō":{"ha":688,"x_min":118,"x_max":761,"o":"m 468 708 q 728 458 728 708 q 689 233 728 339 q 567 56 650 126 q 375 -15 485 -15 q 118 232 118 -15 q 160 459 118 351 q 283 638 201 567 q 468 708 365 708 m 375 113 q 522 218 465 113 q 578 460 578 324 q 550 549 578 517 q 468 581 522 581 q 324 474 379 581 q 268 231 268 367 q 375 113 268 113 m 324 878 l 351 1000 l 761 1000 l 732 878 l 324 878 z "},"Ŏ":{"ha":861,"x_min":147,"x_max":931,"o":"m 632 1268 q 696 1214 632 1214 q 755 1233 729 1214 q 792 1285 781 1253 l 928 1285 q 671 1094 867 1094 q 534 1138 574 1094 q 494 1243 494 1181 q 497 1285 494 1263 l 633 1285 q 632 1268 632 1275 m 307 306 q 307 251 307 306 q 343 158 307 196 q 463 119 379 119 q 604 171 546 119 q 726 383 682 240 q 771 665 771 526 q 735 793 771 754 q 616 832 699 832 q 482 786 533 832 q 354 565 401 713 q 307 306 307 417 m 703 67 q 447 -15 597 -15 q 222 54 297 -15 q 147 272 147 124 q 203 615 147 453 q 367 871 260 778 q 628 967 474 967 q 931 679 931 967 q 873 324 931 490 q 703 67 815 157 z "},"ŏ":{"ha":688,"x_min":118,"x_max":782,"o":"m 468 708 q 728 458 728 708 q 689 233 728 339 q 567 56 650 126 q 375 -15 485 -15 q 118 232 118 -15 q 160 459 118 351 q 283 638 201 567 q 468 708 365 708 m 375 113 q 522 218 465 113 q 578 460 578 324 q 550 549 578 517 q 468 581 522 581 q 324 474 379 581 q 268 231 268 367 q 375 113 268 113 m 469 1026 q 468 1001 468 1017 q 482 965 468 985 q 539 946 496 946 q 647 1026 621 946 l 782 1026 q 501 821 715 821 q 361 875 403 821 q 331 976 331 914 q 335 1026 331 1000 l 469 1026 z "},"Ő":{"ha":861,"x_min":147,"x_max":1035,"o":"m 838 1046 l 735 1096 l 919 1331 l 1035 1276 l 838 1046 m 563 1047 l 458 1096 l 646 1332 l 760 1278 l 563 1047 m 307 306 q 307 251 307 306 q 343 158 307 196 q 463 119 379 119 q 604 171 546 119 q 726 383 682 240 q 771 665 771 526 q 735 793 771 754 q 616 832 699 832 q 482 786 533 832 q 354 565 401 713 q 307 306 307 417 m 703 67 q 447 -15 597 -15 q 222 54 297 -15 q 147 272 147 124 q 203 615 147 453 q 367 871 260 778 q 628 967 474 967 q 931 679 931 967 q 873 324 931 490 q 703 67 815 157 z "},"ő":{"ha":688,"x_min":118,"x_max":871,"o":"m 468 708 q 728 458 728 708 q 689 233 728 339 q 567 56 650 126 q 375 -15 485 -15 q 118 232 118 -15 q 160 459 118 351 q 283 638 201 567 q 468 708 365 708 m 375 113 q 522 218 465 113 q 578 460 578 324 q 550 549 578 517 q 468 581 522 581 q 324 474 379 581 q 268 231 268 367 q 375 113 268 113 m 638 793 l 550 869 l 775 1103 l 871 1024 l 638 793 m 375 793 l 289 869 l 513 1101 l 608 1024 l 375 793 z "},"Œ":{"ha":1171,"x_min":138,"x_max":1344,"o":"m 397 -15 q 207 43 269 -15 q 139 240 139 107 q 171 479 139 343 q 343 856 232 735 q 631 978 454 978 q 794 963 703 978 l 1344 963 l 1311 814 l 904 814 l 840 550 l 1167 550 l 1135 408 l 808 411 l 746 149 l 1151 149 l 1117 0 l 571 0 q 397 -15 469 -15 m 450 133 q 600 143 486 133 l 761 819 q 614 828 682 828 q 434 748 500 828 q 322 481 368 668 q 293 278 293 350 q 330 169 293 206 q 450 133 367 133 z "},"œ":{"ha":1078,"x_min":113,"x_max":1139,"o":"m 999 131 l 1038 135 l 1011 17 q 745 -15 879 -15 q 567 74 611 -15 q 336 -15 481 -15 q 117 149 135 -15 q 114 223 114 175 q 132 351 114 271 q 258 617 175 525 q 497 708 342 708 q 697 610 653 708 q 926 708 783 708 q 1138 535 1125 708 q 1139 481 1139 518 q 1122 389 1139 443 l 1089 282 l 693 285 q 683 229 683 249 q 685 201 683 210 q 795 122 693 122 q 999 131 897 122 m 521 225 q 563 347 546 278 q 581 444 581 415 q 579 483 581 472 q 475 574 574 574 q 349 518 394 574 q 282 366 304 463 q 260 238 260 269 q 261 194 260 206 q 372 119 269 119 q 521 225 474 119 m 983 399 q 996 478 996 458 q 972 553 996 536 q 887 571 947 571 q 783 530 826 571 q 719 401 739 489 l 983 399 z "},"Ŕ":{"ha":779,"x_min":97,"x_max":872,"o":"m 872 697 q 872 629 872 697 q 806 470 872 561 q 646 347 740 379 l 735 0 l 581 0 l 503 326 l 328 326 l 253 0 l 97 0 l 318 951 l 600 951 q 806 892 739 951 q 872 697 872 832 m 713 677 q 713 719 713 677 q 685 790 713 761 q 589 818 657 818 l 442 818 l 358 460 l 518 460 q 660 526 607 460 q 713 677 713 593 m 475 1075 l 463 1193 l 807 1321 l 821 1186 l 475 1075 z "},"ŕ":{"ha":453,"x_min":83,"x_max":614,"o":"m 83 0 l 243 694 l 392 694 l 368 593 q 483 666 415 631 q 600 710 550 701 l 557 554 q 378 481 494 536 l 342 464 l 233 0 l 83 0 m 269 813 l 257 932 l 601 1060 l 614 925 l 269 813 z "},"Ŗ":{"ha":779,"x_min":97,"x_max":872,"o":"m 203 -414 l 332 -100 l 469 -100 l 328 -414 l 203 -414 m 600 951 q 806 892 739 951 q 872 697 872 832 q 806 470 872 561 q 646 347 740 379 l 735 0 l 581 0 l 503 326 l 328 326 l 253 0 l 97 0 l 318 951 l 600 951 m 518 460 q 660 526 607 460 q 713 677 713 593 q 685 790 713 761 q 589 818 657 818 l 442 818 l 358 460 l 518 460 z "},"ŗ":{"ha":453,"x_min":-51,"x_max":600,"o":"m 83 0 l 243 694 l 392 694 l 368 593 q 483 666 415 631 q 600 710 550 701 l 557 554 q 378 481 494 536 l 342 464 l 233 0 l 83 0 m 78 -100 l 215 -100 l 74 -414 l -51 -414 l 78 -100 z "},"Ř":{"ha":779,"x_min":97,"x_max":872,"o":"m 863 1288 l 643 1086 l 542 1086 l 410 1288 l 558 1288 l 617 1193 l 714 1288 l 863 1288 m 872 697 q 872 629 872 697 q 806 470 872 561 q 646 347 740 379 l 735 0 l 581 0 l 503 326 l 328 326 l 253 0 l 97 0 l 318 951 l 600 951 q 806 892 739 951 q 872 697 872 832 m 713 677 q 713 719 713 677 q 685 790 713 761 q 589 818 657 818 l 442 818 l 358 460 l 518 460 q 660 526 607 460 q 713 677 713 593 z "},"ř":{"ha":453,"x_min":83,"x_max":682,"o":"m 83 0 l 243 694 l 392 694 l 368 593 q 483 666 415 631 q 600 710 550 701 l 557 554 q 378 481 494 536 l 342 464 l 233 0 l 83 0 m 456 806 l 363 806 l 247 1035 l 385 1035 l 439 929 l 535 1035 l 682 1035 l 456 806 z "},"Ś":{"ha":690,"x_min":74,"x_max":824,"o":"m 789 810 q 550 835 639 835 q 415 793 461 835 q 369 676 369 751 q 397 606 369 629 q 527 542 424 583 q 670 453 631 500 q 710 314 710 406 q 615 71 710 157 q 357 -15 519 -15 q 224 -3 294 -15 q 114 21 153 8 l 74 33 l 99 146 q 358 119 258 119 q 551 296 551 119 q 525 367 551 344 q 399 431 499 390 q 256 520 300 471 q 213 660 213 569 q 301 882 213 797 q 540 967 390 967 q 672 956 603 967 q 778 933 740 944 l 817 921 l 789 810 m 478 1075 l 465 1193 l 810 1321 l 824 1186 l 478 1075 z "},"ś":{"ha":599,"x_min":67,"x_max":713,"o":"m 425 581 q 340 553 371 581 q 308 490 308 525 q 331 442 308 456 q 413 410 353 428 q 500 382 472 393 q 556 353 528 371 q 606 243 606 321 q 521 51 606 117 q 299 -15 436 -15 q 97 15 193 -15 l 67 25 l 94 138 q 304 113 226 113 q 453 214 453 113 q 431 253 453 240 q 328 286 408 265 q 203 342 249 307 q 157 446 157 378 q 239 638 157 567 q 440 708 321 708 q 650 681 556 708 l 681 672 l 653 560 q 425 581 515 581 m 368 813 l 356 932 l 700 1060 l 713 925 l 368 813 z "},"Ŝ":{"ha":690,"x_min":74,"x_max":818,"o":"m 789 810 q 550 835 639 835 q 415 793 461 835 q 369 676 369 751 q 397 606 369 629 q 527 542 424 583 q 670 453 631 500 q 710 314 710 406 q 615 71 710 157 q 357 -15 519 -15 q 224 -3 294 -15 q 114 21 153 8 l 74 33 l 99 146 q 358 119 258 119 q 551 296 551 119 q 525 367 551 344 q 399 431 499 390 q 256 520 300 471 q 213 660 213 569 q 301 882 213 797 q 540 967 390 967 q 672 956 603 967 q 778 933 740 944 l 817 921 l 789 810 m 361 1090 l 597 1293 l 685 1293 l 818 1090 l 681 1090 l 628 1182 l 521 1090 l 361 1090 z "},"ŝ":{"ha":599,"x_min":67,"x_max":701,"o":"m 425 581 q 340 553 371 581 q 308 490 308 525 q 331 442 308 456 q 413 410 353 428 q 500 382 472 393 q 556 353 528 371 q 606 243 606 321 q 521 51 606 117 q 299 -15 436 -15 q 97 15 193 -15 l 67 25 l 94 138 q 304 113 226 113 q 453 214 453 113 q 431 253 453 240 q 328 286 408 265 q 203 342 249 307 q 157 446 157 378 q 239 638 157 567 q 440 708 321 708 q 650 681 556 708 l 681 672 l 653 560 q 425 581 515 581 m 269 806 l 494 1035 l 582 1035 l 701 806 l 564 806 l 515 908 l 417 806 l 269 806 z "},"Ş":{"ha":690,"x_min":74,"x_max":817,"o":"m 789 810 q 550 835 639 835 q 415 793 461 835 q 369 676 369 751 q 397 606 369 629 q 527 542 424 583 q 670 453 631 500 q 710 314 710 406 q 618 74 710 160 q 368 -15 526 -12 l 358 -53 l 367 -53 q 490 -137 490 -53 q 486 -172 490 -153 q 319 -307 454 -307 q 221 -297 274 -307 l 206 -294 l 229 -200 q 303 -203 275 -203 q 365 -162 356 -203 q 359 -133 371 -140 q 321 -126 347 -126 l 281 -126 l 306 -12 q 104 24 190 -4 l 74 33 l 99 146 q 358 119 258 119 q 551 296 551 119 q 525 367 551 344 q 399 431 499 390 q 256 520 300 471 q 213 660 213 569 q 301 882 213 797 q 540 967 390 967 q 672 956 603 967 q 778 933 740 944 l 817 921 l 789 810 z "},"ş":{"ha":600,"x_min":67,"x_max":681,"o":"m 261 -307 q 163 -297 217 -307 l 147 -294 l 171 -200 q 244 -203 217 -203 q 307 -162 297 -203 q 301 -133 313 -140 q 263 -126 289 -126 l 222 -126 l 247 -12 q 89 17 153 -4 l 67 25 l 94 138 q 304 113 226 113 q 453 214 453 113 q 431 253 453 240 q 328 286 408 265 q 203 342 249 307 q 157 446 157 378 q 239 638 157 567 q 440 708 321 708 q 650 681 556 708 l 681 672 l 653 560 q 425 581 515 581 q 340 553 371 581 q 308 490 308 525 q 331 442 308 456 q 413 410 353 428 q 500 382 472 393 q 556 353 528 371 q 606 243 606 321 q 524 53 606 119 q 310 -15 443 -12 l 300 -53 l 308 -53 q 432 -137 432 -53 q 428 -172 432 -153 q 261 -307 396 -307 z "},"Š":{"ha":690,"x_min":74,"x_max":875,"o":"m 875 1289 l 656 1088 l 554 1088 l 422 1289 l 571 1289 l 629 1194 l 726 1289 l 875 1289 m 789 810 q 550 835 639 835 q 415 793 461 835 q 369 676 369 751 q 397 606 369 629 q 527 542 424 583 q 670 453 631 500 q 710 314 710 406 q 615 71 710 157 q 357 -15 519 -15 q 224 -3 294 -15 q 114 21 153 8 l 74 33 l 99 146 q 358 119 258 119 q 551 296 551 119 q 525 367 551 344 q 399 431 499 390 q 256 520 300 471 q 213 660 213 569 q 301 882 213 797 q 540 967 390 967 q 672 956 603 967 q 778 933 740 944 l 817 921 l 789 810 z "},"š":{"ha":599,"x_min":67,"x_max":756,"o":"m 425 581 q 340 553 371 581 q 308 490 308 525 q 331 442 308 456 q 413 410 353 428 q 500 382 472 393 q 556 353 528 371 q 606 243 606 321 q 521 51 606 117 q 299 -15 436 -15 q 97 15 193 -15 l 67 25 l 94 138 q 304 113 226 113 q 453 214 453 113 q 431 253 453 240 q 328 286 408 265 q 203 342 249 307 q 157 446 157 378 q 239 638 157 567 q 440 708 321 708 q 650 681 556 708 l 681 672 l 653 560 q 425 581 515 581 m 529 806 l 436 806 l 321 1035 l 458 1035 l 513 929 l 608 1035 l 756 1035 l 529 806 z "},"Ţ":{"ha":640,"x_min":186,"x_max":847,"o":"m 300 -307 q 201 -297 256 -307 l 186 -294 l 210 -200 q 283 -203 256 -203 q 346 -162 336 -203 q 340 -133 351 -140 q 301 -126 328 -126 l 261 -126 l 290 0 l 242 0 l 429 817 l 201 817 l 233 951 l 847 951 l 815 817 l 585 817 l 396 0 l 353 0 l 339 -53 l 347 -53 q 471 -137 471 -53 q 467 -172 471 -153 q 300 -307 435 -307 z "},"ţ":{"ha":450,"x_min":135,"x_max":585,"o":"m 249 -307 q 150 -297 203 -307 l 135 -294 l 158 -200 q 232 -203 204 -203 q 294 -162 285 -203 q 288 -133 300 -140 q 250 -126 276 -126 l 210 -126 l 236 -7 q 146 126 146 22 q 167 269 146 183 l 236 565 l 156 565 l 189 694 l 268 694 l 311 885 l 463 885 l 418 694 l 585 694 l 553 565 l 388 565 l 315 257 q 301 164 301 199 q 356 113 301 113 l 456 121 l 443 11 q 297 -15 371 -15 l 288 -53 l 296 -53 q 419 -137 419 -53 q 415 -172 419 -153 q 249 -307 383 -307 z "},"Ť":{"ha":640,"x_min":201,"x_max":847,"o":"m 819 1288 l 600 1086 l 499 1086 l 367 1288 l 515 1288 l 574 1193 l 671 1288 l 819 1288 m 201 817 l 233 951 l 847 951 l 815 817 l 585 817 l 396 0 l 242 0 l 429 817 l 201 817 z "},"ť":{"ha":607,"x_min":146,"x_max":839,"o":"m 839 951 l 758 614 l 621 614 l 701 951 l 839 951 m 301 164 q 356 113 301 113 l 456 121 l 443 11 q 298 -15 371 -15 q 185 24 225 -15 q 146 123 146 63 q 167 269 146 183 l 236 565 l 156 565 l 189 694 l 268 694 l 311 885 l 463 885 l 418 694 l 585 694 l 553 565 l 388 565 l 315 257 q 301 164 301 199 z "},"Ŧ":{"ha":647,"x_min":144,"x_max":851,"o":"m 206 817 l 238 951 l 851 951 l 819 817 l 589 817 l 517 508 l 711 508 l 676 374 l 486 374 l 400 0 l 246 0 l 332 374 l 144 374 l 176 508 l 363 508 l 433 817 l 206 817 z "},"ŧ":{"ha":456,"x_min":108,"x_max":588,"o":"m 304 164 q 358 113 304 113 l 458 121 l 446 11 q 301 -15 374 -15 q 188 24 228 -15 q 149 123 149 63 q 169 269 149 183 l 179 311 l 108 311 l 136 442 l 210 442 l 239 565 l 158 565 l 192 694 l 271 694 l 314 885 l 465 885 l 421 694 l 588 694 l 556 565 l 390 565 l 361 442 l 514 442 l 485 311 l 331 311 l 318 257 q 304 164 304 199 z "},"Ũ":{"ha":825,"x_min":149,"x_max":956,"o":"m 754 1096 q 647 1129 719 1096 q 556 1163 574 1163 q 456 1118 521 1163 l 433 1103 l 429 1208 q 583 1296 522 1296 q 698 1263 626 1296 q 783 1229 769 1229 q 879 1272 810 1229 l 901 1286 l 904 1181 q 754 1096 817 1096 m 315 313 q 303 210 303 257 q 444 119 303 119 q 584 164 540 119 q 651 308 628 208 l 800 951 l 956 951 l 807 308 q 680 62 768 139 q 444 -15 592 -15 q 149 193 149 -15 q 165 335 149 251 l 308 951 l 464 951 l 315 313 z "},"ũ":{"ha":703,"x_min":128,"x_max":781,"o":"m 624 833 q 526 865 590 833 q 446 897 463 897 q 350 856 413 897 l 328 840 l 325 946 q 475 1029 414 1029 q 576 998 514 1029 q 653 967 639 967 q 744 1008 679 967 l 765 1022 l 771 915 q 624 833 685 833 m 294 -15 q 169 35 210 -15 q 128 171 128 86 q 156 349 128 222 l 235 694 l 385 694 l 308 360 q 283 206 283 260 q 356 115 283 115 q 426 144 385 115 q 496 201 468 172 l 524 231 l 631 694 l 781 694 l 621 0 l 476 0 l 492 92 q 463 62 481 79 q 392 15 444 44 q 294 -15 340 -15 z "},"Ū":{"ha":825,"x_min":149,"x_max":956,"o":"m 315 313 q 303 210 303 257 q 444 119 303 119 q 584 164 540 119 q 651 308 628 208 l 800 951 l 956 951 l 807 308 q 680 62 768 139 q 444 -15 592 -15 q 149 193 149 -15 q 165 335 149 251 l 308 951 l 464 951 l 315 313 m 439 1131 l 467 1251 l 901 1251 l 872 1131 l 439 1131 z "},"ū":{"ha":703,"x_min":128,"x_max":781,"o":"m 294 -15 q 169 35 210 -15 q 128 171 128 86 q 156 349 128 222 l 235 694 l 385 694 l 308 360 q 283 206 283 260 q 356 115 283 115 q 426 144 385 115 q 496 201 468 172 l 524 231 l 631 694 l 781 694 l 621 0 l 476 0 l 492 92 q 463 62 481 79 q 392 15 444 44 q 294 -15 340 -15 m 328 878 l 356 1000 l 765 1000 l 736 878 l 328 878 z "},"Ŭ":{"ha":825,"x_min":149,"x_max":956,"o":"m 603 1268 q 667 1214 603 1214 q 726 1233 700 1214 q 763 1285 751 1253 l 899 1285 q 642 1094 838 1094 q 505 1138 544 1094 q 465 1243 465 1181 q 468 1285 465 1263 l 604 1285 q 603 1268 603 1275 m 315 313 q 303 210 303 257 q 444 119 303 119 q 584 164 540 119 q 651 308 628 208 l 800 951 l 956 951 l 807 308 q 680 62 768 139 q 444 -15 592 -15 q 149 193 149 -15 q 165 335 149 251 l 308 951 l 464 951 l 315 313 z "},"ŭ":{"ha":703,"x_min":128,"x_max":796,"o":"m 294 -15 q 169 35 210 -15 q 128 171 128 86 q 156 349 128 222 l 235 694 l 385 694 l 308 360 q 283 206 283 260 q 356 115 283 115 q 426 144 385 115 q 496 201 468 172 l 524 231 l 631 694 l 781 694 l 621 0 l 476 0 l 492 92 q 463 62 481 79 q 392 15 444 44 q 294 -15 340 -15 m 483 1026 q 482 1001 482 1017 q 496 965 482 985 q 553 946 510 946 q 661 1026 635 946 l 796 1026 q 515 821 729 821 q 375 875 417 821 q 344 976 344 914 q 349 1026 344 1000 l 483 1026 z "},"Ů":{"ha":825,"x_min":149,"x_max":956,"o":"m 774 1051 q 644 1013 719 1013 q 531 1053 568 1013 q 507 1108 507 1078 q 514 1164 507 1139 q 588 1278 533 1240 q 716 1317 642 1317 q 828 1279 790 1317 q 851 1222 851 1254 q 774 1051 851 1107 m 621 1126 q 628 1118 621 1126 q 667 1111 635 1111 q 747 1164 733 1111 q 749 1182 749 1171 q 733 1206 749 1193 q 692 1218 718 1218 q 611 1164 626 1218 q 621 1126 607 1140 m 315 313 q 303 210 303 257 q 444 119 303 119 q 584 164 540 119 q 651 308 628 208 l 800 951 l 956 951 l 807 308 q 680 62 768 139 q 444 -15 592 -15 q 149 193 149 -15 q 165 335 149 251 l 308 951 l 464 951 l 315 313 z "},"ů":{"ha":703,"x_min":128,"x_max":781,"o":"m 415 888 q 476 990 429 949 q 584 1031 522 1031 q 671 993 646 1031 q 688 942 688 968 q 683 894 688 915 q 624 784 672 825 q 513 743 576 743 q 424 783 449 743 q 408 835 408 807 q 415 888 408 863 m 499 888 q 504 851 493 867 q 537 835 515 835 q 576 849 558 835 q 599 885 593 864 q 594 922 606 907 q 563 936 583 936 q 499 888 514 936 m 294 -15 q 169 35 210 -15 q 128 171 128 86 q 156 349 128 222 l 235 694 l 385 694 l 308 360 q 283 206 283 260 q 356 115 283 115 q 426 144 385 115 q 496 201 468 172 l 524 231 l 631 694 l 781 694 l 621 0 l 476 0 l 492 92 q 463 62 481 79 q 392 15 444 44 q 294 -15 340 -15 z "},"Ű":{"ha":825,"x_min":149,"x_max":999,"o":"m 801 1036 l 699 1086 l 883 1321 l 999 1267 l 801 1036 m 526 1038 l 422 1086 l 610 1322 l 724 1268 l 526 1038 m 315 313 q 303 210 303 257 q 444 119 303 119 q 584 164 540 119 q 651 308 628 208 l 800 951 l 956 951 l 807 308 q 680 62 768 139 q 444 -15 592 -15 q 149 193 149 -15 q 165 335 149 251 l 308 951 l 464 951 l 315 313 z "},"ű":{"ha":703,"x_min":128,"x_max":903,"o":"m 669 793 l 582 869 l 807 1103 l 903 1024 l 669 793 m 407 793 l 321 869 l 544 1101 l 640 1024 l 407 793 m 294 -15 q 169 35 210 -15 q 128 171 128 86 q 156 349 128 222 l 235 694 l 385 694 l 308 360 q 283 206 283 260 q 356 115 283 115 q 426 144 385 115 q 496 201 468 172 l 524 231 l 631 694 l 781 694 l 621 0 l 476 0 l 492 92 q 463 62 481 79 q 392 15 444 44 q 294 -15 340 -15 z "},"Ų":{"ha":829,"x_min":150,"x_max":957,"o":"m 317 313 q 304 210 304 257 q 446 119 304 119 q 585 164 542 119 q 653 308 629 208 l 801 951 l 957 951 l 808 308 q 707 86 775 163 q 521 -8 639 10 q 426 -135 426 -89 q 451 -158 426 -158 l 510 -153 l 494 -278 q 372 -292 424 -292 q 292 -266 321 -292 q 264 -193 264 -240 q 378 -12 264 -114 q 150 193 150 8 q 167 335 150 251 l 310 951 l 465 951 l 317 313 z "},"ų":{"ha":703,"x_min":128,"x_max":781,"o":"m 621 0 q 546 -64 586 -21 q 506 -133 506 -107 q 531 -158 506 -158 l 589 -153 l 574 -278 q 450 -292 501 -292 q 371 -266 399 -292 q 343 -192 343 -240 q 385 -90 343 -144 q 476 4 426 -36 l 492 92 q 463 62 481 79 q 392 15 444 44 q 294 -15 340 -15 q 169 35 210 -15 q 128 171 128 86 q 156 349 128 222 l 235 694 l 385 694 l 308 360 q 283 206 283 260 q 356 115 283 115 q 426 144 385 115 q 496 201 468 172 l 524 231 l 631 694 l 781 694 l 621 0 z "},"Ŵ":{"ha":1179,"x_min":208,"x_max":1367,"o":"m 600 1089 l 836 1292 l 924 1292 l 1057 1089 l 919 1089 l 867 1181 l 760 1089 l 600 1089 m 249 951 l 404 951 l 351 143 l 379 143 l 719 938 l 889 938 l 851 143 l 878 143 l 1213 951 l 1367 951 l 958 0 l 721 0 l 758 732 l 453 0 l 208 0 l 249 951 z "},"ŵ":{"ha":1039,"x_min":165,"x_max":1168,"o":"m 193 694 l 344 694 l 314 129 l 343 129 l 592 681 l 764 681 l 751 129 l 781 129 l 1015 694 l 1168 694 l 871 0 l 615 0 l 628 481 l 417 0 l 165 0 l 193 694 m 476 806 l 701 1035 l 789 1035 l 908 806 l 771 806 l 722 908 l 624 806 l 476 806 z "},"Ŷ":{"ha":693,"x_min":226,"x_max":906,"o":"m 363 1089 l 599 1292 l 686 1292 l 819 1089 l 682 1089 l 629 1181 l 522 1089 l 363 1089 m 906 951 l 510 404 l 414 0 l 269 0 l 365 414 l 226 951 l 383 951 l 469 549 l 742 951 l 906 951 z "},"ŷ":{"ha":639,"x_min":143,"x_max":775,"o":"m 182 694 l 331 694 l 324 125 l 354 125 l 622 694 l 775 694 l 294 -299 l 143 -299 l 293 0 l 188 0 l 182 694 m 276 806 l 501 1035 l 589 1035 l 708 806 l 571 806 l 522 908 l 424 806 l 276 806 z "},"Ÿ":{"ha":693,"x_min":226,"x_max":906,"o":"m 393 1110 l 431 1272 l 556 1272 l 517 1110 l 393 1110 m 663 1110 l 700 1272 l 825 1272 l 785 1110 l 663 1110 m 906 951 l 510 404 l 414 0 l 269 0 l 365 414 l 226 951 l 383 951 l 469 549 l 742 951 l 906 951 z "},"Ź":{"ha":683,"x_min":51,"x_max":851,"o":"m 450 1075 l 438 1193 l 782 1321 l 796 1186 l 450 1075 m 240 817 l 272 951 l 851 951 l 813 781 l 264 169 l 256 135 l 663 135 l 631 0 l 51 0 l 89 168 l 635 782 l 643 817 l 240 817 z "},"ź":{"ha":578,"x_min":50,"x_max":689,"o":"m 211 694 l 689 694 l 658 569 l 254 129 l 560 129 l 526 0 l 50 0 l 76 126 l 479 565 l 179 565 l 211 694 m 343 813 l 331 932 l 675 1060 l 688 925 l 343 813 z "},"Ż":{"ha":683,"x_min":51,"x_max":851,"o":"m 525 1106 l 563 1269 l 694 1269 l 656 1106 l 525 1106 m 240 817 l 272 951 l 851 951 l 813 781 l 264 169 l 256 135 l 663 135 l 631 0 l 51 0 l 89 168 l 635 782 l 643 817 l 240 817 z "},"ż":{"ha":578,"x_min":50,"x_max":689,"o":"m 211 694 l 689 694 l 658 569 l 254 129 l 560 129 l 526 0 l 50 0 l 76 126 l 479 565 l 179 565 l 211 694 m 401 822 l 439 983 l 568 983 l 531 822 l 401 822 z "},"Ž":{"ha":683,"x_min":51,"x_max":860,"o":"m 860 1286 l 640 1085 l 539 1085 l 407 1286 l 556 1286 l 614 1192 l 711 1286 l 860 1286 m 240 817 l 272 951 l 851 951 l 813 781 l 264 169 l 256 135 l 663 135 l 631 0 l 51 0 l 89 168 l 635 782 l 643 817 l 240 817 z "},"ž":{"ha":578,"x_min":50,"x_max":738,"o":"m 511 806 l 418 806 l 303 1035 l 440 1035 l 494 929 l 590 1035 l 738 1035 l 511 806 m 179 565 l 211 694 l 689 694 l 658 569 l 254 129 l 560 129 l 526 0 l 50 0 l 76 126 l 479 565 l 179 565 z "},"ƒ":{"ha":778,"x_min":29,"x_max":863,"o":"m 144 -337 q 47 -326 97 -337 l 29 -322 l 57 -201 q 157 -206 119 -206 q 260 -87 232 -206 l 401 511 l 271 511 l 301 651 l 435 651 l 447 699 q 543 913 489 854 q 688 971 597 971 q 863 954 779 971 l 832 826 q 699 831 743 831 q 629 794 654 831 q 589 683 604 757 l 582 651 l 781 651 l 747 511 l 549 511 l 406 -90 q 312 -284 372 -231 q 144 -337 251 -337 z "},"Ǻ":{"ha":767,"x_min":25,"x_max":857,"o":"m 460 924 q 453 964 453 942 q 460 1010 453 986 q 533 1124 479 1086 q 661 1163 586 1163 q 772 1125 736 1163 q 797 1068 797 1100 q 750 925 797 983 l 742 0 l 588 0 l 588 199 l 276 199 l 181 0 l 25 0 l 460 924 m 564 817 l 336 335 l 592 335 l 599 817 l 564 817 m 513 1201 l 500 1321 l 844 1449 l 857 1314 l 513 1201 m 556 1000 q 618 957 556 957 q 693 1010 681 957 q 694 1028 694 1017 q 679 1051 694 1039 q 638 1064 664 1064 q 557 1010 572 1064 q 556 1000 556 1004 z "},"ǻ":{"ha":717,"x_min":117,"x_max":840,"o":"m 494 1058 l 482 1190 l 826 1318 l 840 1172 l 494 1058 m 304 -15 q 163 47 208 -15 q 117 202 117 108 q 138 379 117 296 q 200 538 160 463 q 310 662 240 614 q 468 710 381 710 q 729 679 546 710 l 788 669 l 683 219 l 646 3 l 497 -3 q 518 124 513 97 q 369 0 453 38 q 304 -15 336 -15 m 615 561 q 465 582 521 582 q 361 519 410 582 q 269 217 269 404 q 288 140 269 165 q 347 114 307 114 q 433 151 386 114 q 513 225 481 188 l 544 263 l 615 561 m 443 888 q 503 990 457 949 q 612 1031 550 1031 q 699 993 674 1031 q 715 942 715 968 q 711 894 715 915 q 652 784 700 825 q 540 743 604 743 q 451 783 476 743 q 436 835 436 807 q 443 888 436 863 m 526 888 q 525 871 525 881 q 534 848 525 861 q 565 835 543 835 q 603 850 586 835 q 629 892 629 871 q 590 936 629 936 q 526 888 542 936 z "},"Ǽ":{"ha":1063,"x_min":26,"x_max":1235,"o":"m 456 0 l 503 200 l 269 200 l 174 0 l 26 0 l 476 963 l 1235 963 l 1203 815 l 794 818 l 731 549 l 1060 549 l 1028 408 l 697 408 l 635 146 l 1042 146 l 1010 0 l 456 0 m 554 817 l 335 343 l 538 343 l 649 817 l 554 817 m 718 1075 l 706 1193 l 1050 1321 l 1064 1186 l 718 1075 z "},"ǽ":{"ha":1013,"x_min":78,"x_max":1072,"o":"m 622 218 q 729 122 622 122 q 931 131 829 122 l 969 135 l 943 17 q 681 -15 811 -15 q 501 56 551 -15 q 367 9 451 33 q 232 -15 282 -15 q 106 53 144 -15 q 78 138 78 97 q 85 207 78 178 q 310 413 122 382 q 511 429 410 429 q 524 501 524 468 q 464 567 524 567 q 253 553 365 567 l 213 549 l 236 683 q 503 708 404 708 q 658 632 624 708 q 863 708 736 708 q 1071 508 1071 708 q 1051 382 1071 444 l 1025 282 l 629 285 q 622 218 622 243 m 228 182 q 283 115 228 115 q 469 149 349 115 q 467 202 467 165 q 485 314 467 239 q 340 301 396 308 q 232 211 250 292 q 228 182 228 196 m 915 399 q 928 467 928 443 q 926 501 928 490 q 829 578 919 578 q 718 534 758 578 q 656 401 678 490 l 915 399 m 564 813 l 551 932 l 896 1060 l 908 925 l 564 813 z "},"Ǿ":{"ha":864,"x_min":85,"x_max":1007,"o":"m 149 272 q 205 615 149 453 q 368 871 261 778 q 629 967 475 967 q 797 933 728 967 l 919 1113 l 1007 1076 l 871 878 q 932 679 932 804 q 874 324 932 490 q 704 67 817 157 q 446 -15 599 -15 q 283 14 347 -15 l 163 -164 l 85 -117 l 210 68 q 149 272 149 140 m 714 810 q 606 832 678 832 q 483 786 535 832 q 356 565 403 713 q 308 286 308 417 q 314 222 308 246 l 714 810 m 368 139 q 477 119 407 119 q 606 171 547 119 q 728 383 683 240 q 772 665 772 526 q 767 724 772 701 l 368 139 m 558 1063 l 544 1193 l 889 1321 l 904 1175 l 558 1063 z "},"ǿ":{"ha":688,"x_min":82,"x_max":764,"o":"m 468 708 q 588 690 533 708 l 681 840 l 764 804 l 663 646 q 728 460 728 581 q 689 233 728 339 q 567 56 650 126 q 375 -15 485 -15 q 257 1 307 -15 l 164 -151 l 82 -115 l 183 43 q 118 228 118 104 q 160 459 118 351 q 283 638 201 567 q 468 708 365 708 m 396 813 l 383 932 l 728 1060 l 740 925 l 396 813 m 468 581 q 324 474 379 581 q 268 231 268 367 q 274 185 268 201 l 389 365 l 515 572 q 468 581 494 581 m 375 113 q 522 218 465 113 q 578 460 578 324 q 572 504 578 476 l 460 329 l 331 119 q 375 113 346 113 z "},"Ș":{"ha":690,"x_min":74,"x_max":817,"o":"m 269 -100 l 407 -100 l 265 -414 l 140 -414 l 269 -100 m 789 810 q 550 835 639 835 q 415 793 461 835 q 369 676 369 751 q 397 606 369 629 q 527 542 424 583 q 670 453 631 500 q 710 314 710 406 q 615 71 710 157 q 357 -15 519 -15 q 224 -3 294 -15 q 114 21 153 8 l 74 33 l 99 146 q 358 119 258 119 q 551 296 551 119 q 525 367 551 344 q 399 431 499 390 q 256 520 300 471 q 213 660 213 569 q 301 882 213 797 q 540 967 390 967 q 672 956 603 967 q 778 933 740 944 l 817 921 l 789 810 z "},"ș":{"ha":597,"x_min":67,"x_max":681,"o":"m 425 581 q 340 553 371 581 q 308 490 308 525 q 331 442 308 456 q 413 410 353 428 q 500 382 472 393 q 556 353 528 371 q 606 243 606 321 q 521 51 606 117 q 299 -15 436 -15 q 97 15 193 -15 l 67 25 l 94 138 q 304 113 226 113 q 453 214 453 113 q 431 253 453 240 q 328 286 408 265 q 203 342 249 307 q 157 446 157 378 q 239 638 157 567 q 440 708 321 708 q 650 681 556 708 l 681 672 l 653 560 q 425 581 515 581 m 226 -100 l 364 -100 l 222 -414 l 97 -414 l 226 -100 z "},"Ț":{"ha":640,"x_min":106,"x_max":847,"o":"m 235 -100 l 372 -100 l 231 -414 l 106 -414 l 235 -100 m 201 817 l 233 951 l 847 951 l 815 817 l 585 817 l 396 0 l 242 0 l 429 817 l 201 817 z "},"ț":{"ha":450,"x_min":44,"x_max":585,"o":"m 301 164 q 356 113 301 113 l 456 121 l 443 11 q 298 -15 371 -15 q 185 24 225 -15 q 146 123 146 63 q 167 269 146 183 l 236 565 l 156 565 l 189 694 l 268 694 l 311 885 l 463 885 l 418 694 l 585 694 l 553 565 l 388 565 l 315 257 q 301 164 301 199 m 174 -100 l 311 -100 l 169 -414 l 44 -414 l 174 -100 z "},"ˆ":{"ha":1099,"x_min":510,"x_max":942,"o":"m 510 806 l 735 1035 l 822 1035 l 942 806 l 804 806 l 756 908 l 657 806 l 510 806 z "},"ˇ":{"ha":1099,"x_min":563,"x_max":997,"o":"m 771 806 l 678 806 l 563 1035 l 700 1035 l 754 929 l 850 1035 l 997 1035 l 771 806 z "},"˘":{"ha":628,"x_min":304,"x_max":756,"o":"m 443 1026 q 442 1001 442 1017 q 456 965 442 985 q 513 946 469 946 q 621 1026 594 946 l 756 1026 q 475 821 689 821 q 335 875 376 821 q 304 976 304 914 q 308 1026 304 1000 l 443 1026 z "},"˙":{"ha":336,"x_min":296,"x_max":463,"o":"m 296 822 l 333 983 l 463 983 l 425 822 l 296 822 z "},"˚":{"ha":1099,"x_min":419,"x_max":699,"o":"m 426 888 q 487 990 440 949 q 595 1031 533 1031 q 682 993 657 1031 q 699 942 699 968 q 694 894 699 915 q 635 784 683 825 q 524 743 588 743 q 435 783 460 743 q 419 835 419 807 q 426 888 419 863 m 510 888 q 508 871 508 881 q 517 848 508 861 q 548 835 526 835 q 586 850 569 835 q 613 892 613 871 q 574 936 613 936 q 510 888 525 936 z "},"˛":{"ha":611,"x_min":225,"x_max":501,"o":"m 456 -278 q 333 -292 385 -292 q 253 -266 282 -292 q 225 -190 225 -240 q 276 -78 225 -139 q 379 19 328 -18 l 501 6 q 428 -62 468 -17 q 388 -133 388 -107 q 413 -158 388 -158 l 471 -153 l 456 -278 z "},"˜":{"ha":608,"x_min":288,"x_max":733,"o":"m 586 833 q 489 865 553 833 q 408 897 425 897 q 311 856 375 897 l 290 840 l 288 946 q 438 1029 376 1029 q 539 998 475 1029 q 617 967 603 967 q 706 1008 642 967 l 728 1022 l 733 915 q 586 833 647 833 z "},"˝":{"ha":943,"x_min":383,"x_max":965,"o":"m 732 793 l 644 869 l 869 1103 l 965 1024 l 732 793 m 469 793 l 383 869 l 607 1101 l 703 1024 l 469 793 z "},"π":{"ha":778,"x_min":117,"x_max":824,"o":"m 557 214 l 557 565 l 396 565 l 358 0 l 207 0 l 250 565 q 136 551 201 565 l 117 547 l 117 671 q 319 694 203 694 l 658 694 q 803 708 743 694 l 824 713 l 824 588 q 707 568 788 572 l 707 214 q 728 139 707 160 q 814 118 750 118 l 814 -10 q 680 -1 728 -10 q 603 34 632 7 q 565 101 574 61 q 557 214 557 142 z "},"Ẁ":{"ha":1179,"x_min":208,"x_max":1367,"o":"m 713 1307 l 999 1179 l 931 1063 l 639 1175 l 713 1307 m 249 951 l 404 951 l 351 143 l 379 143 l 719 938 l 889 938 l 851 143 l 878 143 l 1213 951 l 1367 951 l 958 0 l 721 0 l 758 732 l 453 0 l 208 0 l 249 951 z "},"ẁ":{"ha":1039,"x_min":165,"x_max":1168,"o":"m 551 1054 l 836 926 l 772 817 l 479 932 l 551 1054 m 193 694 l 344 694 l 314 129 l 343 129 l 592 681 l 764 681 l 751 129 l 781 129 l 1015 694 l 1168 694 l 871 0 l 615 0 l 628 481 l 417 0 l 165 0 l 193 694 z "},"Ẃ":{"ha":1179,"x_min":208,"x_max":1367,"o":"m 699 1075 l 686 1193 l 1031 1321 l 1044 1186 l 699 1075 m 249 951 l 404 951 l 351 143 l 379 143 l 719 938 l 889 938 l 851 143 l 878 143 l 1213 951 l 1367 951 l 958 0 l 721 0 l 758 732 l 453 0 l 208 0 l 249 951 z "},"ẃ":{"ha":1039,"x_min":165,"x_max":1168,"o":"m 193 694 l 344 694 l 314 129 l 343 129 l 592 681 l 764 681 l 751 129 l 781 129 l 1015 694 l 1168 694 l 871 0 l 615 0 l 628 481 l 417 0 l 165 0 l 193 694 m 560 813 l 547 932 l 892 1060 l 904 925 l 560 813 z "},"Ẅ":{"ha":1179,"x_min":208,"x_max":1367,"o":"m 635 1110 l 672 1272 l 797 1272 l 758 1110 l 635 1110 m 904 1110 l 942 1272 l 1067 1272 l 1026 1110 l 904 1110 m 249 951 l 404 951 l 351 143 l 379 143 l 719 938 l 889 938 l 851 143 l 878 143 l 1213 951 l 1367 951 l 958 0 l 721 0 l 758 732 l 453 0 l 208 0 l 249 951 z "},"ẅ":{"ha":1039,"x_min":165,"x_max":1168,"o":"m 193 694 l 344 694 l 314 129 l 343 129 l 592 681 l 764 681 l 751 129 l 781 129 l 1015 694 l 1168 694 l 871 0 l 615 0 l 628 481 l 417 0 l 165 0 l 193 694 m 506 846 l 543 1008 l 667 1008 l 629 846 l 506 846 m 768 846 l 804 1008 l 929 1008 l 890 846 l 768 846 z "},"ẫ":{"ha":717,"x_min":117,"x_max":857,"o":"m 304 -15 q 163 47 208 -15 q 117 202 117 108 q 138 379 117 296 q 200 538 160 463 q 310 662 240 614 q 468 710 381 710 q 729 679 546 710 l 788 669 l 683 219 l 646 3 l 497 -3 q 518 124 513 97 q 369 0 453 38 q 304 -15 336 -15 m 615 561 q 465 582 521 582 q 361 519 410 582 q 269 217 269 404 q 288 140 269 165 q 347 114 307 114 q 433 151 386 114 q 513 225 481 188 l 544 263 l 615 561 m 710 1033 q 613 1065 676 1033 q 532 1097 549 1097 q 436 1056 499 1097 l 414 1040 l 411 1146 q 561 1229 500 1229 q 663 1198 600 1229 q 739 1167 725 1167 q 831 1208 765 1167 l 851 1222 l 857 1115 q 710 1033 771 1033 m 338 764 l 563 993 l 650 993 l 769 764 l 632 764 l 583 867 l 485 764 l 338 764 z "},"Ằ":{"ha":767,"x_min":25,"x_max":899,"o":"m 614 1544 l 899 1417 l 835 1307 l 542 1422 l 614 1544 m 588 0 l 588 199 l 276 199 l 181 0 l 25 0 l 474 951 l 750 951 l 742 0 l 588 0 m 564 817 l 336 335 l 592 335 l 599 817 l 564 817 m 592 1213 q 656 1158 592 1158 q 715 1178 689 1158 q 751 1229 740 1197 l 888 1229 q 631 1039 826 1039 q 494 1082 533 1039 q 454 1188 454 1125 q 457 1229 454 1207 l 593 1229 q 592 1213 592 1219 z "},"ễ":{"ha":653,"x_min":118,"x_max":826,"o":"m 679 1033 q 582 1065 646 1033 q 501 1097 518 1097 q 406 1056 468 1097 l 383 1040 l 381 1146 q 531 1229 469 1229 q 632 1198 569 1229 q 708 1167 694 1167 q 800 1208 735 1167 l 821 1222 l 826 1115 q 679 1033 740 1033 m 269 213 q 269 190 269 213 q 301 140 269 167 q 381 114 333 114 q 578 131 481 114 l 614 138 l 599 24 q 343 -15 472 -15 q 118 210 118 -15 q 206 550 118 407 q 325 665 250 622 q 496 708 400 708 q 724 518 724 708 q 633 340 724 390 q 336 290 542 290 l 278 290 q 269 213 269 260 m 361 404 q 526 429 478 404 q 575 517 575 454 q 489 586 575 586 q 296 404 344 586 l 361 404 m 301 764 l 526 993 l 614 993 l 733 764 l 596 764 l 547 867 l 449 764 l 301 764 z "},"ỗ":{"ha":688,"x_min":118,"x_max":824,"o":"m 468 708 q 728 458 728 708 q 689 233 728 339 q 567 56 650 126 q 375 -15 485 -15 q 118 232 118 -15 q 160 459 118 351 q 283 638 201 567 q 468 708 365 708 m 375 113 q 522 218 465 113 q 578 460 578 324 q 550 549 578 517 q 468 581 522 581 q 324 474 379 581 q 268 231 268 367 q 375 113 268 113 m 676 1033 q 579 1065 643 1033 q 499 1097 515 1097 q 403 1056 465 1097 l 381 1040 l 378 1146 q 528 1229 467 1229 q 629 1198 567 1229 q 706 1167 692 1167 q 797 1208 732 1167 l 818 1222 l 824 1115 q 676 1033 738 1033 m 300 764 l 525 993 l 613 993 l 732 764 l 594 764 l 546 867 l 447 764 l 300 764 z "},"Ỳ":{"ha":693,"x_min":226,"x_max":906,"o":"m 472 1307 l 758 1179 l 690 1063 l 399 1175 l 472 1307 m 906 951 l 510 404 l 414 0 l 269 0 l 365 414 l 226 951 l 383 951 l 469 549 l 742 951 l 906 951 z "},"ỳ":{"ha":639,"x_min":143,"x_max":775,"o":"m 354 1054 l 639 926 l 575 817 l 282 932 l 354 1054 m 182 694 l 331 694 l 324 125 l 354 125 l 622 694 l 775 694 l 294 -299 l 143 -299 l 293 0 l 188 0 l 182 694 z "},"Ỹ":{"ha":693,"x_min":226,"x_max":906,"o":"m 694 1101 q 597 1133 661 1101 q 517 1165 533 1165 q 419 1122 488 1165 l 399 1108 l 396 1214 q 546 1297 485 1297 q 647 1266 583 1297 q 725 1235 711 1235 q 814 1276 750 1235 l 836 1290 l 842 1183 q 694 1101 756 1101 m 906 951 l 510 404 l 414 0 l 269 0 l 365 414 l 226 951 l 383 951 l 469 549 l 742 951 l 906 951 z "},"ỹ":{"ha":639,"x_min":143,"x_max":775,"o":"m 608 833 q 511 865 575 833 q 431 897 447 897 q 333 856 397 897 l 313 840 l 310 946 q 460 1029 399 1029 q 561 998 497 1029 q 639 967 625 967 q 728 1008 664 967 l 750 1022 l 756 915 q 608 833 669 833 m 182 694 l 331 694 l 324 125 l 354 125 l 622 694 l 775 694 l 294 -299 l 143 -299 l 293 0 l 188 0 l 182 694 z "},"–":{"ha":772,"x_min":125,"x_max":819,"o":"m 125 435 l 819 435 l 819 306 l 125 306 l 125 435 z "},"—":{"ha":1467,"x_min":125,"x_max":1514,"o":"m 125 435 l 1514 435 l 1514 306 l 125 306 l 125 435 z "},"‘":{"ha":246,"x_min":160,"x_max":447,"o":"m 335 950 l 447 950 l 310 615 l 160 615 l 335 950 z "},"’":{"ha":246,"x_min":161,"x_max":449,"o":"m 274 617 l 161 617 l 299 951 l 449 951 l 274 617 z "},"‚":{"ha":222,"x_min":-61,"x_max":226,"o":"m 51 -211 l -61 -211 l 76 124 l 226 124 l 51 -211 z "},"“":{"ha":489,"x_min":158,"x_max":690,"o":"m 333 951 l 446 951 l 308 617 l 158 617 l 333 951 m 578 951 l 690 951 l 553 617 l 403 617 l 578 951 z "},"”":{"ha":490,"x_min":161,"x_max":693,"o":"m 274 617 l 161 617 l 299 951 l 449 951 l 274 617 m 518 617 l 406 617 l 543 951 l 693 951 l 518 617 z "},"„":{"ha":468,"x_min":-89,"x_max":471,"o":"m 358 119 l 471 119 l 333 -215 l 183 -215 l 358 119 m 86 119 l 199 119 l 61 -215 l -89 -215 l 86 119 z "},"†":{"ha":625,"x_min":164,"x_max":744,"o":"m 164 538 l 199 690 l 401 690 l 460 939 l 600 939 l 543 690 l 744 690 l 711 538 l 507 539 l 356 -100 l 217 -100 l 365 538 l 164 538 z "},"‡":{"ha":663,"x_min":90,"x_max":764,"o":"m 236 -100 l 293 147 l 90 147 l 125 299 l 329 297 l 385 538 l 183 538 l 218 690 l 422 689 l 481 939 l 621 939 l 563 690 l 764 690 l 731 538 l 528 539 l 469 299 l 674 299 l 638 147 l 433 147 l 375 -100 l 236 -100 z "},"•":{"ha":653,"x_min":231,"x_max":578,"o":"m 231 143 l 231 535 l 578 535 l 578 143 l 231 143 z "},"…":{"ha":868,"x_min":35,"x_max":876,"o":"m 35 0 l 76 188 l 229 188 l 188 0 l 35 0 m 358 0 l 400 188 l 553 188 l 511 0 l 358 0 m 682 0 l 724 188 l 876 188 l 835 0 l 682 0 z "},"‰":{"ha":1147,"x_min":207,"x_max":1168,"o":"m 354 669 q 397 695 381 669 q 426 769 414 721 q 438 840 438 817 q 406 879 438 879 q 363 856 379 879 q 335 783 347 832 q 322 710 322 735 q 354 669 322 669 m 207 1 l 718 993 l 813 967 l 301 -24 l 207 1 m 208 694 q 219 776 208 731 q 429 974 268 974 q 551 858 551 974 q 540 776 551 822 q 331 576 490 576 q 208 694 208 576 m 686 397 q 810 281 810 397 q 799 200 810 246 q 589 0 749 0 q 481 50 511 0 q 465 116 465 78 q 476 200 465 154 q 686 397 525 397 m 696 267 q 663 304 696 304 q 620 280 636 304 q 592 206 604 256 q 579 126 579 157 q 608 94 579 94 q 654 119 638 94 q 683 193 671 144 q 696 267 696 242 m 946 0 q 824 118 824 0 q 835 200 824 154 q 1043 397 883 397 q 1167 281 1167 397 q 1156 200 1167 246 q 946 0 1106 0 m 1053 267 q 1021 304 1053 304 q 978 280 994 304 q 949 207 961 256 q 936 133 936 158 q 968 94 936 94 q 1011 119 994 94 q 1040 193 1028 144 q 1053 267 1053 242 z "},"‹":{"ha":336,"x_min":90,"x_max":442,"o":"m 442 589 l 399 440 l 231 336 l 347 218 l 310 82 l 90 306 l 117 375 l 442 589 z "},"›":{"ha":339,"x_min":53,"x_max":404,"o":"m 53 82 l 96 231 l 264 335 l 147 453 l 185 589 l 404 365 l 378 296 l 53 82 z "},"⁄":{"ha":69,"x_min":-217,"x_max":521,"o":"m -76 -40 l -217 10 l 379 975 l 521 925 l -76 -40 z "},"⁰":{"ha":389,"x_min":207,"x_max":586,"o":"m 329 1078 q 458 1111 375 1111 q 586 988 586 1111 q 571 879 586 942 q 467 681 535 732 q 337 650 422 650 q 222 700 251 650 q 208 769 208 725 q 224 879 208 814 q 329 1078 261 1028 m 460 967 q 428 1001 460 1001 q 386 976 403 1001 q 353 889 369 951 q 336 801 336 826 q 344 767 336 775 q 372 760 351 760 q 409 783 393 760 q 442 873 425 806 q 460 967 460 940 z "},"⁴":{"ha":389,"x_min":190,"x_max":561,"o":"m 368 664 l 382 721 l 190 721 l 215 822 l 360 1097 l 494 1097 l 344 831 l 410 831 l 456 954 l 561 954 l 531 831 l 554 831 l 528 721 l 503 721 l 489 664 l 368 664 z "},"⁵":{"ha":389,"x_min":192,"x_max":597,"o":"m 414 817 q 390 839 414 839 q 332 828 365 839 l 243 839 l 321 1097 l 597 1097 l 571 992 l 393 992 l 372 929 q 444 943 413 943 q 547 856 547 943 q 540 806 547 833 q 472 688 519 724 q 344 653 424 653 q 214 667 283 653 l 192 672 l 226 772 q 349 758 299 758 q 411 800 400 758 q 414 817 414 810 z "},"⁶":{"ha":389,"x_min":217,"x_max":606,"o":"m 451 1004 q 372 940 390 1004 q 442 951 417 951 q 556 860 556 951 q 549 807 556 836 q 349 650 508 650 q 217 775 217 650 q 231 868 217 815 q 317 1052 261 993 q 474 1111 374 1111 q 583 1100 508 1111 l 606 1096 l 574 996 q 451 1004 493 1004 m 346 835 q 340 794 340 811 q 371 756 340 756 q 425 806 411 756 q 428 824 428 817 q 401 851 428 851 q 346 835 374 851 z "},"⁷":{"ha":389,"x_min":210,"x_max":597,"o":"m 264 976 l 293 1097 l 597 1097 l 565 971 l 349 651 l 210 676 l 417 954 l 421 976 l 264 976 z "},"⁸":{"ha":389,"x_min":196,"x_max":599,"o":"m 283 890 q 257 944 257 903 q 261 990 257 963 q 456 1111 290 1111 q 597 1024 597 1111 q 567 930 597 965 q 519 889 536 894 q 545 865 536 883 q 554 831 554 847 q 549 792 554 814 q 478 681 529 713 q 342 650 428 650 q 219 682 256 650 q 197 733 197 703 q 206 798 197 764 q 240 859 214 832 q 283 890 265 886 m 375 840 q 328 775 328 818 q 369 749 328 749 q 424 793 411 749 q 425 806 425 800 q 403 840 425 828 l 375 840 m 425 929 q 468 989 468 947 q 428 1013 468 1013 q 378 975 389 1013 q 376 965 376 969 q 397 929 376 943 l 425 929 z "},"⁹":{"ha":389,"x_min":190,"x_max":579,"o":"m 418 819 q 351 810 372 810 q 239 903 239 810 q 246 954 239 925 q 318 1070 265 1029 q 447 1111 371 1111 q 578 981 578 1111 q 564 882 578 939 q 479 703 532 757 q 328 650 426 650 q 211 663 274 650 l 190 667 l 224 768 q 346 760 288 760 q 418 819 404 760 m 399 907 q 449 919 411 907 q 456 964 456 946 q 424 1004 456 1004 q 371 956 385 1004 q 368 936 368 944 q 399 907 368 907 z "},"₀":{"ha":389,"x_min":54,"x_max":433,"o":"m 176 414 q 306 447 222 447 q 433 324 433 447 q 418 215 433 278 q 314 17 382 68 q 184 -14 269 -14 q 69 36 99 -14 q 56 106 56 61 q 71 215 56 150 q 176 414 108 364 m 307 303 q 275 338 307 338 q 233 313 250 338 q 200 225 217 288 q 183 137 183 163 q 191 103 183 111 q 219 96 199 96 q 256 119 240 96 q 290 209 272 142 q 307 303 307 276 z "},"₁":{"ha":389,"x_min":101,"x_max":382,"o":"m 101 193 l 269 294 l 382 294 l 275 -139 l 153 -139 l 226 160 l 136 107 l 101 193 z "},"₂":{"ha":389,"x_min":3,"x_max":393,"o":"m 113 294 q 281 308 210 308 q 392 226 392 308 q 268 29 392 111 l 186 -29 l 336 -29 l 310 -139 l 3 -139 l 28 -35 l 163 64 q 253 158 244 121 q 245 184 258 176 q 203 192 232 192 l 89 182 l 113 294 z "},"₃":{"ha":389,"x_min":-6,"x_max":394,"o":"m 110 296 q 271 308 201 308 q 367 284 340 308 q 393 235 393 260 q 317 89 393 129 q 353 26 353 72 q 347 -15 353 8 q 156 -153 313 -153 q 19 -144 94 -153 l -6 -142 l 29 -35 q 162 -43 110 -43 q 224 -6 214 -43 q 225 6 225 0 q 183 31 225 31 l 92 31 l 117 131 l 206 131 q 254 167 244 131 q 249 191 258 183 q 214 199 239 199 l 90 190 l 110 296 z "},"₄":{"ha":389,"x_min":10,"x_max":381,"o":"m 188 -139 l 201 -82 l 10 -82 l 35 19 l 179 294 l 314 294 l 164 28 l 229 28 l 275 151 l 381 151 l 350 28 l 374 28 l 347 -82 l 322 -82 l 308 -139 l 188 -139 z "},"₅":{"ha":389,"x_min":-1,"x_max":404,"o":"m 221 14 q 197 36 221 36 q 139 25 172 36 l 50 36 l 128 294 l 404 294 l 378 189 l 200 189 l 179 126 q 251 140 219 140 q 354 53 354 140 q 347 3 354 31 q 278 -115 326 -79 q 151 -150 231 -150 q 22 -136 90 -150 l -1 -131 l 33 -31 q 157 -44 106 -44 q 218 -3 208 -44 q 221 14 221 7 z "},"₆":{"ha":389,"x_min":31,"x_max":419,"o":"m 265 201 q 186 138 204 201 q 256 149 231 149 q 369 57 369 149 q 363 4 369 33 q 163 -153 322 -153 q 31 -28 31 -153 q 44 65 31 13 q 131 249 75 190 q 288 308 188 308 q 397 297 322 308 l 419 293 l 388 193 q 265 201 307 201 m 160 32 q 154 -8 154 8 q 185 -47 154 -47 q 239 3 225 -47 q 242 21 242 14 q 215 49 242 49 q 160 32 188 49 z "},"₇":{"ha":389,"x_min":28,"x_max":415,"o":"m 82 174 l 111 294 l 415 294 l 383 168 l 167 -151 l 28 -126 l 235 151 l 239 174 l 82 174 z "},"₈":{"ha":389,"x_min":10,"x_max":413,"o":"m 97 88 q 71 142 71 100 q 75 188 71 160 q 269 308 104 308 q 411 221 411 308 q 381 127 411 163 q 333 86 350 92 q 359 63 350 81 q 368 28 368 44 q 363 -11 368 11 q 292 -122 343 -90 q 156 -153 242 -153 q 33 -121 69 -153 q 11 -69 11 -100 q 19 -5 11 -39 q 53 56 28 29 q 97 88 79 83 m 189 38 q 142 -28 142 15 q 183 -54 142 -54 q 238 -10 225 -54 q 239 3 239 -3 q 217 38 239 25 l 189 38 m 239 126 q 282 186 282 144 q 242 210 282 210 q 192 172 201 210 q 190 163 190 167 q 211 126 190 140 l 239 126 z "},"₉":{"ha":389,"x_min":4,"x_max":393,"o":"m 232 17 q 165 7 186 7 q 53 100 53 7 q 60 151 53 122 q 132 267 79 226 q 261 308 185 308 q 392 178 392 308 q 378 79 392 136 q 293 -99 346 -46 q 142 -153 240 -153 q 25 -140 85 -153 l 4 -136 l 38 -35 q 160 -43 101 -43 q 232 17 218 -43 m 213 104 q 263 117 225 104 q 269 161 269 143 q 238 201 269 201 q 185 153 199 201 q 182 133 182 142 q 213 104 182 104 z "},"€":{"ha":778,"x_min":132,"x_max":903,"o":"m 476 -15 q 208 249 208 -15 l 208 269 l 132 269 l 160 389 l 218 389 q 242 507 228 456 l 185 507 l 214 626 l 282 626 q 438 849 340 765 q 676 932 536 932 q 869 906 772 932 l 903 896 l 868 783 q 669 803 776 803 q 440 626 529 803 l 765 626 l 739 507 l 396 507 q 371 389 379 449 l 713 389 l 685 269 l 363 269 l 363 260 q 496 115 363 115 q 682 131 590 115 l 713 135 l 701 18 q 476 -15 579 -15 z "},"™":{"ha":963,"x_min":300,"x_max":1013,"o":"m 300 793 l 300 886 l 578 886 l 578 793 l 506 793 l 506 461 l 403 461 l 403 793 l 300 793 m 617 460 l 617 886 l 740 886 l 813 636 l 890 886 l 1013 886 l 1013 460 l 917 460 l 917 732 l 850 485 l 782 485 l 713 732 l 713 460 l 617 460 z "},"Ω":{"ha":778,"x_min":149,"x_max":793,"o":"m 150 117 l 286 117 q 248 176 271 139 q 187 323 225 214 q 149 529 149 432 q 222 836 149 740 q 471 932 294 932 q 720 836 647 932 q 793 529 793 740 q 758 328 793 432 q 689 171 724 225 l 654 117 l 792 117 l 792 -12 l 510 -12 l 510 100 q 595 301 557 186 q 633 490 633 417 q 602 730 633 663 q 470 797 571 797 q 339 730 369 797 q 308 490 308 663 q 339 319 308 417 q 400 161 369 222 l 432 100 l 432 -12 l 150 -12 l 150 117 z "},"∂":{"ha":778,"x_min":164,"x_max":822,"o":"m 479 999 q 741 876 660 999 q 822 493 822 754 q 742 110 822 232 q 482 -12 661 -12 q 164 299 164 -12 q 242 524 164 443 q 463 604 321 604 q 633 576 557 604 l 661 567 q 609 801 654 733 q 454 869 564 869 q 356 856 410 869 q 269 828 301 842 l 238 815 l 232 933 q 479 999 350 999 m 661 439 q 492 474 583 474 q 363 426 401 474 q 324 299 324 379 q 482 117 324 117 q 617 194 574 117 q 661 439 661 272 z "},"∆":{"ha":778,"x_min":115,"x_max":760,"o":"m 760 0 l 115 0 l 115 117 l 308 917 l 568 917 l 760 114 l 760 0 m 457 789 l 419 789 l 267 129 l 608 129 l 457 789 z "},"∏":{"ha":778,"x_min":178,"x_max":871,"o":"m 629 -239 l 629 917 l 417 917 l 417 -239 l 261 -239 l 261 917 l 178 917 l 178 1051 l 871 1051 l 871 917 l 783 917 l 783 -239 l 629 -239 z "},"∑":{"ha":778,"x_min":143,"x_max":819,"o":"m 143 1051 l 819 1051 l 819 915 l 307 915 l 307 890 l 631 472 l 631 365 l 307 -76 l 307 -104 l 819 -104 l 819 -239 l 143 -239 l 143 -69 l 490 419 l 143 882 l 143 1051 z "},"−":{"ha":778,"x_min":168,"x_max":768,"o":"m 168 281 l 168 417 l 768 417 l 768 281 l 168 281 z "},"√":{"ha":778,"x_min":149,"x_max":936,"o":"m 149 479 l 149 615 l 353 615 l 501 -56 l 518 -56 l 783 1090 l 936 1090 l 629 -185 l 388 -185 l 226 479 l 149 479 z "},"∞":{"ha":778,"x_min":132,"x_max":832,"o":"m 317 168 q 179 228 226 168 q 132 405 132 289 q 178 582 132 521 q 314 643 225 643 q 411 614 371 643 q 482 518 451 585 q 553 614 513 585 q 650 643 593 643 q 785 583 739 643 q 832 406 832 522 q 647 168 832 168 q 552 197 592 168 q 482 292 513 226 q 413 195 450 222 q 317 168 375 168 m 336 513 q 271 406 271 513 q 336 299 271 299 q 400 344 375 299 q 431 406 410 361 q 403 462 411 446 q 376 495 394 478 q 336 513 357 513 m 628 299 q 693 406 693 299 q 628 513 693 513 q 588 495 607 513 q 561 462 569 478 q 533 406 553 446 q 547 376 539 388 q 560 353 554 365 q 569 338 567 342 q 578 325 572 333 q 590 314 585 317 q 600 306 594 311 q 628 299 611 299 z "},"∫":{"ha":778,"x_min":231,"x_max":742,"o":"m 560 -17 q 508 -212 560 -154 q 360 -269 456 -269 q 251 -258 322 -269 l 231 -254 l 236 -129 q 323 -133 279 -133 q 386 -107 367 -133 q 406 -14 406 -81 l 406 813 q 451 1024 406 965 q 604 1083 496 1083 q 719 1072 644 1083 l 742 1068 l 738 943 q 643 949 689 949 q 578 918 597 949 q 560 813 560 888 l 560 -17 z "},"≈":{"ha":778,"x_min":163,"x_max":768,"o":"m 694 394 q 670 383 694 394 q 608 371 646 371 q 460 406 569 371 q 325 442 351 442 q 261 427 299 442 q 200 397 224 413 l 176 383 l 163 506 q 331 578 251 578 q 476 542 371 578 q 608 507 581 507 q 732 550 658 507 l 756 564 l 768 443 q 694 394 743 418 m 694 110 q 670 98 694 110 q 608 86 646 86 q 460 122 569 86 q 325 157 351 157 q 261 142 299 157 q 200 114 224 128 l 176 99 l 163 221 q 331 293 251 293 q 476 258 371 293 q 608 222 581 222 q 672 236 636 222 q 732 264 708 250 l 756 279 l 768 158 q 694 110 743 133 z "},"≠":{"ha":778,"x_min":165,"x_max":774,"o":"m 165 418 l 165 554 l 481 554 l 575 769 l 694 722 l 619 554 l 774 554 l 774 418 l 560 418 l 499 279 l 774 279 l 774 143 l 439 143 l 350 -61 l 232 -14 l 300 143 l 165 143 l 165 279 l 360 279 l 421 418 l 165 418 z "},"≤":{"ha":778,"x_min":161,"x_max":746,"o":"m 746 558 l 331 458 l 746 349 l 746 201 l 161 386 l 161 518 l 746 706 l 746 558 m 161 28 l 161 164 l 746 164 l 746 28 l 161 28 z "},"≥":{"ha":778,"x_min":179,"x_max":764,"o":"m 594 458 l 179 558 l 179 706 l 764 518 l 764 386 l 179 201 l 179 349 l 594 458 m 764 164 l 764 28 l 179 28 l 179 164 l 764 164 z "},"◊":{"ha":778,"x_min":171,"x_max":815,"o":"m 390 239 l 171 453 l 390 678 l 597 678 l 815 453 l 597 239 l 390 239 m 507 343 l 663 453 l 507 574 l 479 574 l 322 453 l 479 343 l 507 343 z "},"":{"ha":317,"x_min":-108,"x_max":393,"o":"m 83 0 l 243 694 l 393 694 l 233 0 q 185 -153 208 -106 q 128 -222 161 -200 q -60 -322 56 -272 l -108 -201 q 35 -112 7 -143 q 83 0 64 -82 z "},"":{"ha":224,"x_min":-87,"x_max":179,"o":"m -87 -414 l 42 -100 l 179 -100 l 38 -414 l -87 -414 z "}}}
